%TF.GenerationSoftware,KiCad,Pcbnew,7.0.5*%
%TF.CreationDate,2024-08-25T19:53:10+07:00*%
%TF.ProjectId,13A-Pro,3133412d-5072-46f2-9e6b-696361645f70,rev?*%
%TF.SameCoordinates,Original*%
%TF.FileFunction,Legend,Top*%
%TF.FilePolarity,Positive*%
%FSLAX46Y46*%
G04 Gerber Fmt 4.6, Leading zero omitted, Abs format (unit mm)*
G04 Created by KiCad (PCBNEW 7.0.5) date 2024-08-25 19:53:10*
%MOMM*%
%LPD*%
G01*
G04 APERTURE LIST*
%ADD10C,0.150000*%
%ADD11C,1.750000*%
%ADD12C,3.987800*%
%ADD13C,3.300000*%
G04 APERTURE END LIST*
D10*
X140735291Y-93228628D02*
X141592434Y-93228628D01*
X141163862Y-94728628D02*
X141163862Y-93228628D01*
X142378148Y-93228628D02*
X142663862Y-93228628D01*
X142663862Y-93228628D02*
X142806719Y-93300057D01*
X142806719Y-93300057D02*
X142949576Y-93442914D01*
X142949576Y-93442914D02*
X143021005Y-93728628D01*
X143021005Y-93728628D02*
X143021005Y-94228628D01*
X143021005Y-94228628D02*
X142949576Y-94514342D01*
X142949576Y-94514342D02*
X142806719Y-94657200D01*
X142806719Y-94657200D02*
X142663862Y-94728628D01*
X142663862Y-94728628D02*
X142378148Y-94728628D01*
X142378148Y-94728628D02*
X142235291Y-94657200D01*
X142235291Y-94657200D02*
X142092433Y-94514342D01*
X142092433Y-94514342D02*
X142021005Y-94228628D01*
X142021005Y-94228628D02*
X142021005Y-93728628D01*
X142021005Y-93728628D02*
X142092433Y-93442914D01*
X142092433Y-93442914D02*
X142235291Y-93300057D01*
X142235291Y-93300057D02*
X142378148Y-93228628D01*
X144806719Y-94728628D02*
X144806719Y-93228628D01*
X145521005Y-94728628D02*
X145521005Y-93228628D01*
X145521005Y-93228628D02*
X146378148Y-94728628D01*
X146378148Y-94728628D02*
X146378148Y-93228628D01*
X147592434Y-93942914D02*
X147092434Y-93942914D01*
X147092434Y-94728628D02*
X147092434Y-93228628D01*
X147092434Y-93228628D02*
X147806720Y-93228628D01*
X148378148Y-94728628D02*
X148378148Y-93228628D01*
X149092434Y-94728628D02*
X149092434Y-93228628D01*
X149092434Y-93228628D02*
X149949577Y-94728628D01*
X149949577Y-94728628D02*
X149949577Y-93228628D01*
X150663863Y-94728628D02*
X150663863Y-93228628D01*
X151163864Y-93228628D02*
X152021007Y-93228628D01*
X151592435Y-94728628D02*
X151592435Y-93228628D01*
X152806721Y-94014342D02*
X152806721Y-94728628D01*
X152306721Y-93228628D02*
X152806721Y-94014342D01*
X152806721Y-94014342D02*
X153306721Y-93228628D01*
X140878148Y-96715057D02*
X141592434Y-96715057D01*
X140735291Y-97143628D02*
X141235291Y-95643628D01*
X141235291Y-95643628D02*
X141735291Y-97143628D01*
X142235290Y-97143628D02*
X142235290Y-95643628D01*
X142235290Y-95643628D02*
X143092433Y-97143628D01*
X143092433Y-97143628D02*
X143092433Y-95643628D01*
X143806719Y-97143628D02*
X143806719Y-95643628D01*
X143806719Y-95643628D02*
X144163862Y-95643628D01*
X144163862Y-95643628D02*
X144378148Y-95715057D01*
X144378148Y-95715057D02*
X144521005Y-95857914D01*
X144521005Y-95857914D02*
X144592434Y-96000771D01*
X144592434Y-96000771D02*
X144663862Y-96286485D01*
X144663862Y-96286485D02*
X144663862Y-96500771D01*
X144663862Y-96500771D02*
X144592434Y-96786485D01*
X144592434Y-96786485D02*
X144521005Y-96929342D01*
X144521005Y-96929342D02*
X144378148Y-97072200D01*
X144378148Y-97072200D02*
X144163862Y-97143628D01*
X144163862Y-97143628D02*
X143806719Y-97143628D01*
X146949576Y-96357914D02*
X147163862Y-96429342D01*
X147163862Y-96429342D02*
X147235291Y-96500771D01*
X147235291Y-96500771D02*
X147306719Y-96643628D01*
X147306719Y-96643628D02*
X147306719Y-96857914D01*
X147306719Y-96857914D02*
X147235291Y-97000771D01*
X147235291Y-97000771D02*
X147163862Y-97072200D01*
X147163862Y-97072200D02*
X147021005Y-97143628D01*
X147021005Y-97143628D02*
X146449576Y-97143628D01*
X146449576Y-97143628D02*
X146449576Y-95643628D01*
X146449576Y-95643628D02*
X146949576Y-95643628D01*
X146949576Y-95643628D02*
X147092434Y-95715057D01*
X147092434Y-95715057D02*
X147163862Y-95786485D01*
X147163862Y-95786485D02*
X147235291Y-95929342D01*
X147235291Y-95929342D02*
X147235291Y-96072200D01*
X147235291Y-96072200D02*
X147163862Y-96215057D01*
X147163862Y-96215057D02*
X147092434Y-96286485D01*
X147092434Y-96286485D02*
X146949576Y-96357914D01*
X146949576Y-96357914D02*
X146449576Y-96357914D01*
X147949576Y-96357914D02*
X148449576Y-96357914D01*
X148663862Y-97143628D02*
X147949576Y-97143628D01*
X147949576Y-97143628D02*
X147949576Y-95643628D01*
X147949576Y-95643628D02*
X148663862Y-95643628D01*
X149592434Y-96429342D02*
X149592434Y-97143628D01*
X149092434Y-95643628D02*
X149592434Y-96429342D01*
X149592434Y-96429342D02*
X150092434Y-95643628D01*
X150878148Y-95643628D02*
X151163862Y-95643628D01*
X151163862Y-95643628D02*
X151306719Y-95715057D01*
X151306719Y-95715057D02*
X151449576Y-95857914D01*
X151449576Y-95857914D02*
X151521005Y-96143628D01*
X151521005Y-96143628D02*
X151521005Y-96643628D01*
X151521005Y-96643628D02*
X151449576Y-96929342D01*
X151449576Y-96929342D02*
X151306719Y-97072200D01*
X151306719Y-97072200D02*
X151163862Y-97143628D01*
X151163862Y-97143628D02*
X150878148Y-97143628D01*
X150878148Y-97143628D02*
X150735291Y-97072200D01*
X150735291Y-97072200D02*
X150592433Y-96929342D01*
X150592433Y-96929342D02*
X150521005Y-96643628D01*
X150521005Y-96643628D02*
X150521005Y-96143628D01*
X150521005Y-96143628D02*
X150592433Y-95857914D01*
X150592433Y-95857914D02*
X150735291Y-95715057D01*
X150735291Y-95715057D02*
X150878148Y-95643628D01*
X152163862Y-97143628D02*
X152163862Y-95643628D01*
X152163862Y-95643628D02*
X153021005Y-97143628D01*
X153021005Y-97143628D02*
X153021005Y-95643628D01*
X153735291Y-97143628D02*
X153735291Y-95643628D01*
X153735291Y-95643628D02*
X154092434Y-95643628D01*
X154092434Y-95643628D02*
X154306720Y-95715057D01*
X154306720Y-95715057D02*
X154449577Y-95857914D01*
X154449577Y-95857914D02*
X154521006Y-96000771D01*
X154521006Y-96000771D02*
X154592434Y-96286485D01*
X154592434Y-96286485D02*
X154592434Y-96500771D01*
X154592434Y-96500771D02*
X154521006Y-96786485D01*
X154521006Y-96786485D02*
X154449577Y-96929342D01*
X154449577Y-96929342D02*
X154306720Y-97072200D01*
X154306720Y-97072200D02*
X154092434Y-97143628D01*
X154092434Y-97143628D02*
X153735291Y-97143628D01*
X155235291Y-97000771D02*
X155306720Y-97072200D01*
X155306720Y-97072200D02*
X155235291Y-97143628D01*
X155235291Y-97143628D02*
X155163863Y-97072200D01*
X155163863Y-97072200D02*
X155235291Y-97000771D01*
X155235291Y-97000771D02*
X155235291Y-97143628D01*
%TO.C,U1*%
X141319345Y-89942319D02*
X141319345Y-90751842D01*
X141319345Y-90751842D02*
X141366964Y-90847080D01*
X141366964Y-90847080D02*
X141414583Y-90894700D01*
X141414583Y-90894700D02*
X141509821Y-90942319D01*
X141509821Y-90942319D02*
X141700297Y-90942319D01*
X141700297Y-90942319D02*
X141795535Y-90894700D01*
X141795535Y-90894700D02*
X141843154Y-90847080D01*
X141843154Y-90847080D02*
X141890773Y-90751842D01*
X141890773Y-90751842D02*
X141890773Y-89942319D01*
X142890773Y-90942319D02*
X142319345Y-90942319D01*
X142605059Y-90942319D02*
X142605059Y-89942319D01*
X142605059Y-89942319D02*
X142509821Y-90085176D01*
X142509821Y-90085176D02*
X142414583Y-90180414D01*
X142414583Y-90180414D02*
X142319345Y-90228033D01*
X139509464Y-60899819D02*
X138938036Y-60899819D01*
X139223750Y-60899819D02*
X139223750Y-59899819D01*
X139223750Y-59899819D02*
X139128512Y-60042676D01*
X139128512Y-60042676D02*
X139033274Y-60137914D01*
X139033274Y-60137914D02*
X138938036Y-60185533D01*
X145581845Y-58869819D02*
X145581845Y-59679342D01*
X145581845Y-59679342D02*
X145629464Y-59774580D01*
X145629464Y-59774580D02*
X145677083Y-59822200D01*
X145677083Y-59822200D02*
X145772321Y-59869819D01*
X145772321Y-59869819D02*
X145962797Y-59869819D01*
X145962797Y-59869819D02*
X146058035Y-59822200D01*
X146058035Y-59822200D02*
X146105654Y-59774580D01*
X146105654Y-59774580D02*
X146153273Y-59679342D01*
X146153273Y-59679342D02*
X146153273Y-58869819D01*
X146581845Y-59822200D02*
X146724702Y-59869819D01*
X146724702Y-59869819D02*
X146962797Y-59869819D01*
X146962797Y-59869819D02*
X147058035Y-59822200D01*
X147058035Y-59822200D02*
X147105654Y-59774580D01*
X147105654Y-59774580D02*
X147153273Y-59679342D01*
X147153273Y-59679342D02*
X147153273Y-59584104D01*
X147153273Y-59584104D02*
X147105654Y-59488866D01*
X147105654Y-59488866D02*
X147058035Y-59441247D01*
X147058035Y-59441247D02*
X146962797Y-59393628D01*
X146962797Y-59393628D02*
X146772321Y-59346009D01*
X146772321Y-59346009D02*
X146677083Y-59298390D01*
X146677083Y-59298390D02*
X146629464Y-59250771D01*
X146629464Y-59250771D02*
X146581845Y-59155533D01*
X146581845Y-59155533D02*
X146581845Y-59060295D01*
X146581845Y-59060295D02*
X146629464Y-58965057D01*
X146629464Y-58965057D02*
X146677083Y-58917438D01*
X146677083Y-58917438D02*
X146772321Y-58869819D01*
X146772321Y-58869819D02*
X147010416Y-58869819D01*
X147010416Y-58869819D02*
X147153273Y-58917438D01*
X147915178Y-59346009D02*
X148058035Y-59393628D01*
X148058035Y-59393628D02*
X148105654Y-59441247D01*
X148105654Y-59441247D02*
X148153273Y-59536485D01*
X148153273Y-59536485D02*
X148153273Y-59679342D01*
X148153273Y-59679342D02*
X148105654Y-59774580D01*
X148105654Y-59774580D02*
X148058035Y-59822200D01*
X148058035Y-59822200D02*
X147962797Y-59869819D01*
X147962797Y-59869819D02*
X147581845Y-59869819D01*
X147581845Y-59869819D02*
X147581845Y-58869819D01*
X147581845Y-58869819D02*
X147915178Y-58869819D01*
X147915178Y-58869819D02*
X148010416Y-58917438D01*
X148010416Y-58917438D02*
X148058035Y-58965057D01*
X148058035Y-58965057D02*
X148105654Y-59060295D01*
X148105654Y-59060295D02*
X148105654Y-59155533D01*
X148105654Y-59155533D02*
X148058035Y-59250771D01*
X148058035Y-59250771D02*
X148010416Y-59298390D01*
X148010416Y-59298390D02*
X147915178Y-59346009D01*
X147915178Y-59346009D02*
X147581845Y-59346009D01*
X144224702Y-60603152D02*
X144605654Y-60603152D01*
X144367559Y-60269819D02*
X144367559Y-61126961D01*
X144367559Y-61126961D02*
X144415178Y-61222200D01*
X144415178Y-61222200D02*
X144510416Y-61269819D01*
X144510416Y-61269819D02*
X144605654Y-61269819D01*
X145081845Y-61269819D02*
X144986607Y-61222200D01*
X144986607Y-61222200D02*
X144938988Y-61174580D01*
X144938988Y-61174580D02*
X144891369Y-61079342D01*
X144891369Y-61079342D02*
X144891369Y-60793628D01*
X144891369Y-60793628D02*
X144938988Y-60698390D01*
X144938988Y-60698390D02*
X144986607Y-60650771D01*
X144986607Y-60650771D02*
X145081845Y-60603152D01*
X145081845Y-60603152D02*
X145224702Y-60603152D01*
X145224702Y-60603152D02*
X145319940Y-60650771D01*
X145319940Y-60650771D02*
X145367559Y-60698390D01*
X145367559Y-60698390D02*
X145415178Y-60793628D01*
X145415178Y-60793628D02*
X145415178Y-61079342D01*
X145415178Y-61079342D02*
X145367559Y-61174580D01*
X145367559Y-61174580D02*
X145319940Y-61222200D01*
X145319940Y-61222200D02*
X145224702Y-61269819D01*
X145224702Y-61269819D02*
X145081845Y-61269819D01*
X145843750Y-60603152D02*
X145843750Y-61603152D01*
X145843750Y-60650771D02*
X145938988Y-60603152D01*
X145938988Y-60603152D02*
X146129464Y-60603152D01*
X146129464Y-60603152D02*
X146224702Y-60650771D01*
X146224702Y-60650771D02*
X146272321Y-60698390D01*
X146272321Y-60698390D02*
X146319940Y-60793628D01*
X146319940Y-60793628D02*
X146319940Y-61079342D01*
X146319940Y-61079342D02*
X146272321Y-61174580D01*
X146272321Y-61174580D02*
X146224702Y-61222200D01*
X146224702Y-61222200D02*
X146129464Y-61269819D01*
X146129464Y-61269819D02*
X145938988Y-61269819D01*
X145938988Y-61269819D02*
X145843750Y-61222200D01*
X146700893Y-61222200D02*
X146796131Y-61269819D01*
X146796131Y-61269819D02*
X146986607Y-61269819D01*
X146986607Y-61269819D02*
X147081845Y-61222200D01*
X147081845Y-61222200D02*
X147129464Y-61126961D01*
X147129464Y-61126961D02*
X147129464Y-61079342D01*
X147129464Y-61079342D02*
X147081845Y-60984104D01*
X147081845Y-60984104D02*
X146986607Y-60936485D01*
X146986607Y-60936485D02*
X146843750Y-60936485D01*
X146843750Y-60936485D02*
X146748512Y-60888866D01*
X146748512Y-60888866D02*
X146700893Y-60793628D01*
X146700893Y-60793628D02*
X146700893Y-60746009D01*
X146700893Y-60746009D02*
X146748512Y-60650771D01*
X146748512Y-60650771D02*
X146843750Y-60603152D01*
X146843750Y-60603152D02*
X146986607Y-60603152D01*
X146986607Y-60603152D02*
X147081845Y-60650771D01*
X147558036Y-61269819D02*
X147558036Y-60603152D01*
X147558036Y-60269819D02*
X147510417Y-60317438D01*
X147510417Y-60317438D02*
X147558036Y-60365057D01*
X147558036Y-60365057D02*
X147605655Y-60317438D01*
X147605655Y-60317438D02*
X147558036Y-60269819D01*
X147558036Y-60269819D02*
X147558036Y-60365057D01*
X148462797Y-61269819D02*
X148462797Y-60269819D01*
X148462797Y-61222200D02*
X148367559Y-61269819D01*
X148367559Y-61269819D02*
X148177083Y-61269819D01*
X148177083Y-61269819D02*
X148081845Y-61222200D01*
X148081845Y-61222200D02*
X148034226Y-61174580D01*
X148034226Y-61174580D02*
X147986607Y-61079342D01*
X147986607Y-61079342D02*
X147986607Y-60793628D01*
X147986607Y-60793628D02*
X148034226Y-60698390D01*
X148034226Y-60698390D02*
X148081845Y-60650771D01*
X148081845Y-60650771D02*
X148177083Y-60603152D01*
X148177083Y-60603152D02*
X148367559Y-60603152D01*
X148367559Y-60603152D02*
X148462797Y-60650771D01*
X149319940Y-61222200D02*
X149224702Y-61269819D01*
X149224702Y-61269819D02*
X149034226Y-61269819D01*
X149034226Y-61269819D02*
X148938988Y-61222200D01*
X148938988Y-61222200D02*
X148891369Y-61126961D01*
X148891369Y-61126961D02*
X148891369Y-60746009D01*
X148891369Y-60746009D02*
X148938988Y-60650771D01*
X148938988Y-60650771D02*
X149034226Y-60603152D01*
X149034226Y-60603152D02*
X149224702Y-60603152D01*
X149224702Y-60603152D02*
X149319940Y-60650771D01*
X149319940Y-60650771D02*
X149367559Y-60746009D01*
X149367559Y-60746009D02*
X149367559Y-60841247D01*
X149367559Y-60841247D02*
X148891369Y-60936485D01*
X143293750Y-62000000D02*
X143293750Y-58420000D01*
X150393750Y-62000000D02*
X143293750Y-62000000D01*
X150393750Y-62000000D02*
X150393750Y-58420000D01*
X137953750Y-58420000D02*
X155733750Y-58420000D01*
X155733750Y-58420000D02*
X155733750Y-91440000D01*
X155733750Y-91440000D02*
X137953750Y-91440000D01*
X137953750Y-91440000D02*
X137953750Y-58420000D01*
%TD*%
%LPC*%
D11*
%TO.C,MX4*%
X93980000Y-88900000D03*
D12*
X88900000Y-88900000D03*
D11*
X83820000Y-88900000D03*
D13*
X85090000Y-86360000D03*
X91440000Y-83820000D03*
%TD*%
D11*
%TO.C,MX2*%
X113030000Y-69850000D03*
D12*
X107950000Y-69850000D03*
D11*
X102870000Y-69850000D03*
D13*
X104140000Y-67310000D03*
X110490000Y-64770000D03*
%TD*%
D11*
%TO.C,MX7*%
X93980000Y-107950000D03*
D12*
X88900000Y-107950000D03*
D11*
X83820000Y-107950000D03*
D13*
X85090000Y-105410000D03*
X91440000Y-102870000D03*
%TD*%
D11*
%TO.C,MX14*%
X151130000Y-127000000D03*
D12*
X146050000Y-127000000D03*
D11*
X140970000Y-127000000D03*
D13*
X142240000Y-124460000D03*
X148590000Y-121920000D03*
%TD*%
D11*
%TO.C,MX13*%
X132080000Y-127000000D03*
D12*
X127000000Y-127000000D03*
D11*
X121920000Y-127000000D03*
D13*
X123190000Y-124460000D03*
X129540000Y-121920000D03*
%TD*%
D11*
%TO.C,MX5*%
X113030000Y-88900000D03*
D12*
X107950000Y-88900000D03*
D11*
X102870000Y-88900000D03*
D13*
X104140000Y-86360000D03*
X110490000Y-83820000D03*
%TD*%
D11*
%TO.C,MX10*%
X151130000Y-107950000D03*
D12*
X146050000Y-107950000D03*
D11*
X140970000Y-107950000D03*
D13*
X142240000Y-105410000D03*
X148590000Y-102870000D03*
%TD*%
D11*
%TO.C,MX3*%
X132080000Y-69850000D03*
D12*
X127000000Y-69850000D03*
D11*
X121920000Y-69850000D03*
D13*
X123190000Y-67310000D03*
X129540000Y-64770000D03*
%TD*%
D11*
%TO.C,MX6*%
X132080000Y-88900000D03*
D12*
X127000000Y-88900000D03*
D11*
X121920000Y-88900000D03*
D13*
X123190000Y-86360000D03*
X129540000Y-83820000D03*
%TD*%
D11*
%TO.C,MX12*%
X113030000Y-127000000D03*
D12*
X107950000Y-127000000D03*
D11*
X102870000Y-127000000D03*
D13*
X104140000Y-124460000D03*
X110490000Y-121920000D03*
%TD*%
D11*
%TO.C,MX8*%
X113030000Y-107950000D03*
D12*
X107950000Y-107950000D03*
D11*
X102870000Y-107950000D03*
D13*
X104140000Y-105410000D03*
X110490000Y-102870000D03*
%TD*%
D11*
%TO.C,MX1*%
X93980000Y-69850000D03*
D12*
X88900000Y-69850000D03*
D11*
X83820000Y-69850000D03*
D13*
X85090000Y-67310000D03*
X91440000Y-64770000D03*
%TD*%
D11*
%TO.C,MX11*%
X93980000Y-127000000D03*
D12*
X88900000Y-127000000D03*
D11*
X83820000Y-127000000D03*
D13*
X85090000Y-124460000D03*
X91440000Y-121920000D03*
%TD*%
D11*
%TO.C,MX9*%
X132080000Y-107950000D03*
D12*
X127000000Y-107950000D03*
D11*
X121920000Y-107950000D03*
D13*
X123190000Y-105410000D03*
X129540000Y-102870000D03*
%TD*%
%LPD*%
M02*
