M48
; DRILL file {KiCad 7.0.5} date Sun Aug 25 19:53:18 2024
; FORMAT={-:-/ absolute / inch / decimal}
; #@! TF.CreationDate,2024-08-25T19:53:18+07:00
; #@! TF.GenerationSoftware,Kicad,Pcbnew,7.0.5
; #@! TF.FileFunction,Plated,1,2,PTH
FMAT,2
INCH
; #@! TA.AperFunction,Plated,PTH,ComponentDrill
T1C0.0394
; #@! TA.AperFunction,Plated,PTH,ComponentDrill
T2C0.1181
%
G90
G05
T1
X5.4813Y-2.45
X5.4813Y-2.55
X5.4813Y-2.65
X5.4813Y-2.75
X5.4813Y-2.85
X5.4813Y-2.95
X5.4813Y-3.05
X5.4813Y-3.15
X5.4813Y-3.25
X5.4813Y-3.35
X5.4813Y-3.45
X5.4813Y-3.55
X6.0812Y-2.45
X6.0812Y-2.55
X6.0812Y-2.65
X6.0812Y-2.75
X6.0812Y-2.85
X6.0812Y-2.95
X6.0812Y-3.05
X6.0812Y-3.15
X6.0812Y-3.25
X6.0812Y-3.35
X6.0812Y-3.45
X6.0812Y-3.55
T2
X3.35Y-2.65
X3.35Y-3.4
X3.35Y-4.15
X3.35Y-4.9
X3.6Y-2.55
X3.6Y-3.3
X3.6Y-4.05
X3.6Y-4.8
X4.1Y-2.65
X4.1Y-3.4
X4.1Y-4.15
X4.1Y-4.9
X4.35Y-2.55
X4.35Y-3.3
X4.35Y-4.05
X4.35Y-4.8
X4.85Y-2.65
X4.85Y-3.4
X4.85Y-4.15
X4.85Y-4.9
X5.1Y-2.55
X5.1Y-3.3
X5.1Y-4.05
X5.1Y-4.8
X5.6Y-4.15
X5.6Y-4.9
X5.85Y-4.05
X5.85Y-4.8
T0
M30
