%TF.GenerationSoftware,KiCad,Pcbnew,7.0.5*%
%TF.CreationDate,2024-08-25T19:53:10+07:00*%
%TF.ProjectId,13A-Pro,3133412d-5072-46f2-9e6b-696361645f70,rev?*%
%TF.SameCoordinates,Original*%
%TF.FileFunction,Legend,Bot*%
%TF.FilePolarity,Positive*%
%FSLAX46Y46*%
G04 Gerber Fmt 4.6, Leading zero omitted, Abs format (unit mm)*
G04 Created by KiCad (PCBNEW 7.0.5) date 2024-08-25 19:53:10*
%MOMM*%
%LPD*%
G01*
G04 APERTURE LIST*
G04 Aperture macros list*
%AMRoundRect*
0 Rectangle with rounded corners*
0 $1 Rounding radius*
0 $2 $3 $4 $5 $6 $7 $8 $9 X,Y pos of 4 corners*
0 Add a 4 corners polygon primitive as box body*
4,1,4,$2,$3,$4,$5,$6,$7,$8,$9,$2,$3,0*
0 Add four circle primitives for the rounded corners*
1,1,$1+$1,$2,$3*
1,1,$1+$1,$4,$5*
1,1,$1+$1,$6,$7*
1,1,$1+$1,$8,$9*
0 Add four rect primitives between the rounded corners*
20,1,$1+$1,$2,$3,$4,$5,0*
20,1,$1+$1,$4,$5,$6,$7,0*
20,1,$1+$1,$6,$7,$8,$9,0*
20,1,$1+$1,$8,$9,$2,$3,0*%
G04 Aperture macros list end*
%ADD10C,0.150000*%
%ADD11C,0.127000*%
%ADD12C,0.120000*%
%ADD13C,0.203200*%
%ADD14C,1.800000*%
%ADD15RoundRect,0.450000X-0.450000X-0.450000X0.450000X-0.450000X0.450000X0.450000X-0.450000X0.450000X0*%
%ADD16RoundRect,0.225000X0.375000X-0.225000X0.375000X0.225000X-0.375000X0.225000X-0.375000X-0.225000X0*%
%ADD17C,1.750000*%
%ADD18C,3.987800*%
%ADD19C,3.300000*%
%ADD20RoundRect,0.250000X1.025000X1.000000X-1.025000X1.000000X-1.025000X-1.000000X1.025000X-1.000000X0*%
%ADD21RoundRect,0.101600X-0.798830X1.149350X-0.798830X-1.149350X0.798830X-1.149350X0.798830X1.149350X0*%
G04 APERTURE END LIST*
D10*
X153650720Y-60067819D02*
X153650720Y-59067819D01*
X153650720Y-59067819D02*
X153317387Y-59782104D01*
X153317387Y-59782104D02*
X152984054Y-59067819D01*
X152984054Y-59067819D02*
X152984054Y-60067819D01*
X152555482Y-59782104D02*
X152079292Y-59782104D01*
X152650720Y-60067819D02*
X152317387Y-59067819D01*
X152317387Y-59067819D02*
X151984054Y-60067819D01*
X151650720Y-60067819D02*
X151650720Y-59067819D01*
X151650720Y-59067819D02*
X151412625Y-59067819D01*
X151412625Y-59067819D02*
X151269768Y-59115438D01*
X151269768Y-59115438D02*
X151174530Y-59210676D01*
X151174530Y-59210676D02*
X151126911Y-59305914D01*
X151126911Y-59305914D02*
X151079292Y-59496390D01*
X151079292Y-59496390D02*
X151079292Y-59639247D01*
X151079292Y-59639247D02*
X151126911Y-59829723D01*
X151126911Y-59829723D02*
X151174530Y-59924961D01*
X151174530Y-59924961D02*
X151269768Y-60020200D01*
X151269768Y-60020200D02*
X151412625Y-60067819D01*
X151412625Y-60067819D02*
X151650720Y-60067819D01*
X150650720Y-59544009D02*
X150317387Y-59544009D01*
X150174530Y-60067819D02*
X150650720Y-60067819D01*
X150650720Y-60067819D02*
X150650720Y-59067819D01*
X150650720Y-59067819D02*
X150174530Y-59067819D01*
X148650720Y-59544009D02*
X148507863Y-59591628D01*
X148507863Y-59591628D02*
X148460244Y-59639247D01*
X148460244Y-59639247D02*
X148412625Y-59734485D01*
X148412625Y-59734485D02*
X148412625Y-59877342D01*
X148412625Y-59877342D02*
X148460244Y-59972580D01*
X148460244Y-59972580D02*
X148507863Y-60020200D01*
X148507863Y-60020200D02*
X148603101Y-60067819D01*
X148603101Y-60067819D02*
X148984053Y-60067819D01*
X148984053Y-60067819D02*
X148984053Y-59067819D01*
X148984053Y-59067819D02*
X148650720Y-59067819D01*
X148650720Y-59067819D02*
X148555482Y-59115438D01*
X148555482Y-59115438D02*
X148507863Y-59163057D01*
X148507863Y-59163057D02*
X148460244Y-59258295D01*
X148460244Y-59258295D02*
X148460244Y-59353533D01*
X148460244Y-59353533D02*
X148507863Y-59448771D01*
X148507863Y-59448771D02*
X148555482Y-59496390D01*
X148555482Y-59496390D02*
X148650720Y-59544009D01*
X148650720Y-59544009D02*
X148984053Y-59544009D01*
X147793577Y-59591628D02*
X147793577Y-60067819D01*
X148126910Y-59067819D02*
X147793577Y-59591628D01*
X147793577Y-59591628D02*
X147460244Y-59067819D01*
X145793577Y-60067819D02*
X146126910Y-59591628D01*
X146365005Y-60067819D02*
X146365005Y-59067819D01*
X146365005Y-59067819D02*
X145984053Y-59067819D01*
X145984053Y-59067819D02*
X145888815Y-59115438D01*
X145888815Y-59115438D02*
X145841196Y-59163057D01*
X145841196Y-59163057D02*
X145793577Y-59258295D01*
X145793577Y-59258295D02*
X145793577Y-59401152D01*
X145793577Y-59401152D02*
X145841196Y-59496390D01*
X145841196Y-59496390D02*
X145888815Y-59544009D01*
X145888815Y-59544009D02*
X145984053Y-59591628D01*
X145984053Y-59591628D02*
X146365005Y-59591628D01*
X145365005Y-59544009D02*
X145031672Y-59544009D01*
X144888815Y-60067819D02*
X145365005Y-60067819D01*
X145365005Y-60067819D02*
X145365005Y-59067819D01*
X145365005Y-59067819D02*
X144888815Y-59067819D01*
X143984053Y-60067819D02*
X144460243Y-60067819D01*
X144460243Y-60067819D02*
X144460243Y-59067819D01*
X143079291Y-60067819D02*
X143412624Y-59591628D01*
X143650719Y-60067819D02*
X143650719Y-59067819D01*
X143650719Y-59067819D02*
X143269767Y-59067819D01*
X143269767Y-59067819D02*
X143174529Y-59115438D01*
X143174529Y-59115438D02*
X143126910Y-59163057D01*
X143126910Y-59163057D02*
X143079291Y-59258295D01*
X143079291Y-59258295D02*
X143079291Y-59401152D01*
X143079291Y-59401152D02*
X143126910Y-59496390D01*
X143126910Y-59496390D02*
X143174529Y-59544009D01*
X143174529Y-59544009D02*
X143269767Y-59591628D01*
X143269767Y-59591628D02*
X143650719Y-59591628D01*
X142650719Y-59544009D02*
X142317386Y-59544009D01*
X142174529Y-60067819D02*
X142650719Y-60067819D01*
X142650719Y-60067819D02*
X142650719Y-59067819D01*
X142650719Y-59067819D02*
X142174529Y-59067819D01*
X141269767Y-60067819D02*
X141745957Y-60067819D01*
X141745957Y-60067819D02*
X141745957Y-59067819D01*
X141174529Y-60163057D02*
X140412624Y-60163057D01*
X140412624Y-60163057D02*
X139650719Y-60163057D01*
X139650719Y-60163057D02*
X138888814Y-60163057D01*
X146204657Y-96453101D02*
X147404657Y-96453101D01*
X146833228Y-96453101D02*
X146833228Y-95767387D01*
X146204657Y-95767387D02*
X147404657Y-95767387D01*
X146547514Y-95253101D02*
X146547514Y-94681673D01*
X146204657Y-95367387D02*
X147404657Y-94967387D01*
X147404657Y-94967387D02*
X146204657Y-94567387D01*
X146204657Y-93481673D02*
X146776085Y-93881673D01*
X146204657Y-94167387D02*
X147404657Y-94167387D01*
X147404657Y-94167387D02*
X147404657Y-93710244D01*
X147404657Y-93710244D02*
X147347514Y-93595959D01*
X147347514Y-93595959D02*
X147290371Y-93538816D01*
X147290371Y-93538816D02*
X147176085Y-93481673D01*
X147176085Y-93481673D02*
X147004657Y-93481673D01*
X147004657Y-93481673D02*
X146890371Y-93538816D01*
X146890371Y-93538816D02*
X146833228Y-93595959D01*
X146833228Y-93595959D02*
X146776085Y-93710244D01*
X146776085Y-93710244D02*
X146776085Y-94167387D01*
X146204657Y-92967387D02*
X147404657Y-92967387D01*
X147404657Y-92967387D02*
X147404657Y-92681673D01*
X147404657Y-92681673D02*
X147347514Y-92510244D01*
X147347514Y-92510244D02*
X147233228Y-92395959D01*
X147233228Y-92395959D02*
X147118942Y-92338816D01*
X147118942Y-92338816D02*
X146890371Y-92281673D01*
X146890371Y-92281673D02*
X146718942Y-92281673D01*
X146718942Y-92281673D02*
X146490371Y-92338816D01*
X146490371Y-92338816D02*
X146376085Y-92395959D01*
X146376085Y-92395959D02*
X146261800Y-92510244D01*
X146261800Y-92510244D02*
X146204657Y-92681673D01*
X146204657Y-92681673D02*
X146204657Y-92967387D01*
X146204657Y-90167387D02*
X146776085Y-90567387D01*
X146204657Y-90853101D02*
X147404657Y-90853101D01*
X147404657Y-90853101D02*
X147404657Y-90395958D01*
X147404657Y-90395958D02*
X147347514Y-90281673D01*
X147347514Y-90281673D02*
X147290371Y-90224530D01*
X147290371Y-90224530D02*
X147176085Y-90167387D01*
X147176085Y-90167387D02*
X147004657Y-90167387D01*
X147004657Y-90167387D02*
X146890371Y-90224530D01*
X146890371Y-90224530D02*
X146833228Y-90281673D01*
X146833228Y-90281673D02*
X146776085Y-90395958D01*
X146776085Y-90395958D02*
X146776085Y-90853101D01*
X146833228Y-89653101D02*
X146833228Y-89253101D01*
X146204657Y-89081673D02*
X146204657Y-89653101D01*
X146204657Y-89653101D02*
X147404657Y-89653101D01*
X147404657Y-89653101D02*
X147404657Y-89081673D01*
X146261800Y-88624530D02*
X146204657Y-88453102D01*
X146204657Y-88453102D02*
X146204657Y-88167387D01*
X146204657Y-88167387D02*
X146261800Y-88053102D01*
X146261800Y-88053102D02*
X146318942Y-87995959D01*
X146318942Y-87995959D02*
X146433228Y-87938816D01*
X146433228Y-87938816D02*
X146547514Y-87938816D01*
X146547514Y-87938816D02*
X146661800Y-87995959D01*
X146661800Y-87995959D02*
X146718942Y-88053102D01*
X146718942Y-88053102D02*
X146776085Y-88167387D01*
X146776085Y-88167387D02*
X146833228Y-88395959D01*
X146833228Y-88395959D02*
X146890371Y-88510244D01*
X146890371Y-88510244D02*
X146947514Y-88567387D01*
X146947514Y-88567387D02*
X147061800Y-88624530D01*
X147061800Y-88624530D02*
X147176085Y-88624530D01*
X147176085Y-88624530D02*
X147290371Y-88567387D01*
X147290371Y-88567387D02*
X147347514Y-88510244D01*
X147347514Y-88510244D02*
X147404657Y-88395959D01*
X147404657Y-88395959D02*
X147404657Y-88110244D01*
X147404657Y-88110244D02*
X147347514Y-87938816D01*
X146833228Y-87424530D02*
X146833228Y-87024530D01*
X146204657Y-86853102D02*
X146204657Y-87424530D01*
X146204657Y-87424530D02*
X147404657Y-87424530D01*
X147404657Y-87424530D02*
X147404657Y-86853102D01*
X147404657Y-86510245D02*
X147404657Y-85824531D01*
X146204657Y-86167388D02*
X147404657Y-86167388D01*
X147004657Y-84510244D02*
X146661800Y-83595959D01*
X146661800Y-83595959D02*
X146318942Y-84510244D01*
X147004657Y-83024530D02*
X146661800Y-82110245D01*
X146661800Y-82110245D02*
X146318942Y-83024530D01*
X147004657Y-81538816D02*
X146661800Y-80624531D01*
X146661800Y-80624531D02*
X146318942Y-81538816D01*
%TO.C,D8*%
X113579819Y-112705655D02*
X112579819Y-112705655D01*
X112579819Y-112705655D02*
X112579819Y-112943750D01*
X112579819Y-112943750D02*
X112627438Y-113086607D01*
X112627438Y-113086607D02*
X112722676Y-113181845D01*
X112722676Y-113181845D02*
X112817914Y-113229464D01*
X112817914Y-113229464D02*
X113008390Y-113277083D01*
X113008390Y-113277083D02*
X113151247Y-113277083D01*
X113151247Y-113277083D02*
X113341723Y-113229464D01*
X113341723Y-113229464D02*
X113436961Y-113181845D01*
X113436961Y-113181845D02*
X113532200Y-113086607D01*
X113532200Y-113086607D02*
X113579819Y-112943750D01*
X113579819Y-112943750D02*
X113579819Y-112705655D01*
X113008390Y-113848512D02*
X112960771Y-113753274D01*
X112960771Y-113753274D02*
X112913152Y-113705655D01*
X112913152Y-113705655D02*
X112817914Y-113658036D01*
X112817914Y-113658036D02*
X112770295Y-113658036D01*
X112770295Y-113658036D02*
X112675057Y-113705655D01*
X112675057Y-113705655D02*
X112627438Y-113753274D01*
X112627438Y-113753274D02*
X112579819Y-113848512D01*
X112579819Y-113848512D02*
X112579819Y-114038988D01*
X112579819Y-114038988D02*
X112627438Y-114134226D01*
X112627438Y-114134226D02*
X112675057Y-114181845D01*
X112675057Y-114181845D02*
X112770295Y-114229464D01*
X112770295Y-114229464D02*
X112817914Y-114229464D01*
X112817914Y-114229464D02*
X112913152Y-114181845D01*
X112913152Y-114181845D02*
X112960771Y-114134226D01*
X112960771Y-114134226D02*
X113008390Y-114038988D01*
X113008390Y-114038988D02*
X113008390Y-113848512D01*
X113008390Y-113848512D02*
X113056009Y-113753274D01*
X113056009Y-113753274D02*
X113103628Y-113705655D01*
X113103628Y-113705655D02*
X113198866Y-113658036D01*
X113198866Y-113658036D02*
X113389342Y-113658036D01*
X113389342Y-113658036D02*
X113484580Y-113705655D01*
X113484580Y-113705655D02*
X113532200Y-113753274D01*
X113532200Y-113753274D02*
X113579819Y-113848512D01*
X113579819Y-113848512D02*
X113579819Y-114038988D01*
X113579819Y-114038988D02*
X113532200Y-114134226D01*
X113532200Y-114134226D02*
X113484580Y-114181845D01*
X113484580Y-114181845D02*
X113389342Y-114229464D01*
X113389342Y-114229464D02*
X113198866Y-114229464D01*
X113198866Y-114229464D02*
X113103628Y-114181845D01*
X113103628Y-114181845D02*
X113056009Y-114134226D01*
X113056009Y-114134226D02*
X113008390Y-114038988D01*
%TO.C,MX4*%
X94435713Y-87604819D02*
X94435713Y-86604819D01*
X94435713Y-86604819D02*
X94102380Y-87319104D01*
X94102380Y-87319104D02*
X93769047Y-86604819D01*
X93769047Y-86604819D02*
X93769047Y-87604819D01*
X93388094Y-86604819D02*
X92721428Y-87604819D01*
X92721428Y-86604819D02*
X93388094Y-87604819D01*
X91911904Y-86938152D02*
X91911904Y-87604819D01*
X92149999Y-86557200D02*
X92388094Y-87271485D01*
X92388094Y-87271485D02*
X91769047Y-87271485D01*
%TO.C,MX2*%
X113485713Y-68554819D02*
X113485713Y-67554819D01*
X113485713Y-67554819D02*
X113152380Y-68269104D01*
X113152380Y-68269104D02*
X112819047Y-67554819D01*
X112819047Y-67554819D02*
X112819047Y-68554819D01*
X112438094Y-67554819D02*
X111771428Y-68554819D01*
X111771428Y-67554819D02*
X112438094Y-68554819D01*
X111438094Y-67650057D02*
X111390475Y-67602438D01*
X111390475Y-67602438D02*
X111295237Y-67554819D01*
X111295237Y-67554819D02*
X111057142Y-67554819D01*
X111057142Y-67554819D02*
X110961904Y-67602438D01*
X110961904Y-67602438D02*
X110914285Y-67650057D01*
X110914285Y-67650057D02*
X110866666Y-67745295D01*
X110866666Y-67745295D02*
X110866666Y-67840533D01*
X110866666Y-67840533D02*
X110914285Y-67983390D01*
X110914285Y-67983390D02*
X111485713Y-68554819D01*
X111485713Y-68554819D02*
X110866666Y-68554819D01*
%TO.C,D2*%
X113579819Y-74668155D02*
X112579819Y-74668155D01*
X112579819Y-74668155D02*
X112579819Y-74906250D01*
X112579819Y-74906250D02*
X112627438Y-75049107D01*
X112627438Y-75049107D02*
X112722676Y-75144345D01*
X112722676Y-75144345D02*
X112817914Y-75191964D01*
X112817914Y-75191964D02*
X113008390Y-75239583D01*
X113008390Y-75239583D02*
X113151247Y-75239583D01*
X113151247Y-75239583D02*
X113341723Y-75191964D01*
X113341723Y-75191964D02*
X113436961Y-75144345D01*
X113436961Y-75144345D02*
X113532200Y-75049107D01*
X113532200Y-75049107D02*
X113579819Y-74906250D01*
X113579819Y-74906250D02*
X113579819Y-74668155D01*
X112675057Y-75620536D02*
X112627438Y-75668155D01*
X112627438Y-75668155D02*
X112579819Y-75763393D01*
X112579819Y-75763393D02*
X112579819Y-76001488D01*
X112579819Y-76001488D02*
X112627438Y-76096726D01*
X112627438Y-76096726D02*
X112675057Y-76144345D01*
X112675057Y-76144345D02*
X112770295Y-76191964D01*
X112770295Y-76191964D02*
X112865533Y-76191964D01*
X112865533Y-76191964D02*
X113008390Y-76144345D01*
X113008390Y-76144345D02*
X113579819Y-75572917D01*
X113579819Y-75572917D02*
X113579819Y-76191964D01*
%TO.C,D11*%
X94529819Y-131341964D02*
X93529819Y-131341964D01*
X93529819Y-131341964D02*
X93529819Y-131580059D01*
X93529819Y-131580059D02*
X93577438Y-131722916D01*
X93577438Y-131722916D02*
X93672676Y-131818154D01*
X93672676Y-131818154D02*
X93767914Y-131865773D01*
X93767914Y-131865773D02*
X93958390Y-131913392D01*
X93958390Y-131913392D02*
X94101247Y-131913392D01*
X94101247Y-131913392D02*
X94291723Y-131865773D01*
X94291723Y-131865773D02*
X94386961Y-131818154D01*
X94386961Y-131818154D02*
X94482200Y-131722916D01*
X94482200Y-131722916D02*
X94529819Y-131580059D01*
X94529819Y-131580059D02*
X94529819Y-131341964D01*
X94529819Y-132865773D02*
X94529819Y-132294345D01*
X94529819Y-132580059D02*
X93529819Y-132580059D01*
X93529819Y-132580059D02*
X93672676Y-132484821D01*
X93672676Y-132484821D02*
X93767914Y-132389583D01*
X93767914Y-132389583D02*
X93815533Y-132294345D01*
X94529819Y-133818154D02*
X94529819Y-133246726D01*
X94529819Y-133532440D02*
X93529819Y-133532440D01*
X93529819Y-133532440D02*
X93672676Y-133437202D01*
X93672676Y-133437202D02*
X93767914Y-133341964D01*
X93767914Y-133341964D02*
X93815533Y-133246726D01*
%TO.C,MX7*%
X94435713Y-106654819D02*
X94435713Y-105654819D01*
X94435713Y-105654819D02*
X94102380Y-106369104D01*
X94102380Y-106369104D02*
X93769047Y-105654819D01*
X93769047Y-105654819D02*
X93769047Y-106654819D01*
X93388094Y-105654819D02*
X92721428Y-106654819D01*
X92721428Y-105654819D02*
X93388094Y-106654819D01*
X92435713Y-105654819D02*
X91769047Y-105654819D01*
X91769047Y-105654819D02*
X92197618Y-106654819D01*
D11*
%TO.C,SW1*%
X150427146Y-74072917D02*
X150474765Y-74215774D01*
X150474765Y-74215774D02*
X150474765Y-74453869D01*
X150474765Y-74453869D02*
X150427146Y-74549107D01*
X150427146Y-74549107D02*
X150379526Y-74596726D01*
X150379526Y-74596726D02*
X150284288Y-74644345D01*
X150284288Y-74644345D02*
X150189050Y-74644345D01*
X150189050Y-74644345D02*
X150093812Y-74596726D01*
X150093812Y-74596726D02*
X150046193Y-74549107D01*
X150046193Y-74549107D02*
X149998574Y-74453869D01*
X149998574Y-74453869D02*
X149950955Y-74263393D01*
X149950955Y-74263393D02*
X149903336Y-74168155D01*
X149903336Y-74168155D02*
X149855717Y-74120536D01*
X149855717Y-74120536D02*
X149760479Y-74072917D01*
X149760479Y-74072917D02*
X149665241Y-74072917D01*
X149665241Y-74072917D02*
X149570003Y-74120536D01*
X149570003Y-74120536D02*
X149522384Y-74168155D01*
X149522384Y-74168155D02*
X149474765Y-74263393D01*
X149474765Y-74263393D02*
X149474765Y-74501488D01*
X149474765Y-74501488D02*
X149522384Y-74644345D01*
X149474765Y-74977679D02*
X150474765Y-75215774D01*
X150474765Y-75215774D02*
X149760479Y-75406250D01*
X149760479Y-75406250D02*
X150474765Y-75596726D01*
X150474765Y-75596726D02*
X149474765Y-75834822D01*
X150474765Y-76739583D02*
X150474765Y-76168155D01*
X150474765Y-76453869D02*
X149474765Y-76453869D01*
X149474765Y-76453869D02*
X149617622Y-76358631D01*
X149617622Y-76358631D02*
X149712860Y-76263393D01*
X149712860Y-76263393D02*
X149760479Y-76168155D01*
X144077146Y-72358631D02*
X144124765Y-72501488D01*
X144124765Y-72501488D02*
X144124765Y-72739583D01*
X144124765Y-72739583D02*
X144077146Y-72834821D01*
X144077146Y-72834821D02*
X144029526Y-72882440D01*
X144029526Y-72882440D02*
X143934288Y-72930059D01*
X143934288Y-72930059D02*
X143839050Y-72930059D01*
X143839050Y-72930059D02*
X143743812Y-72882440D01*
X143743812Y-72882440D02*
X143696193Y-72834821D01*
X143696193Y-72834821D02*
X143648574Y-72739583D01*
X143648574Y-72739583D02*
X143600955Y-72549107D01*
X143600955Y-72549107D02*
X143553336Y-72453869D01*
X143553336Y-72453869D02*
X143505717Y-72406250D01*
X143505717Y-72406250D02*
X143410479Y-72358631D01*
X143410479Y-72358631D02*
X143315241Y-72358631D01*
X143315241Y-72358631D02*
X143220003Y-72406250D01*
X143220003Y-72406250D02*
X143172384Y-72453869D01*
X143172384Y-72453869D02*
X143124765Y-72549107D01*
X143124765Y-72549107D02*
X143124765Y-72787202D01*
X143124765Y-72787202D02*
X143172384Y-72930059D01*
X143124765Y-73263393D02*
X144124765Y-73501488D01*
X144124765Y-73501488D02*
X143410479Y-73691964D01*
X143410479Y-73691964D02*
X144124765Y-73882440D01*
X144124765Y-73882440D02*
X143124765Y-74120536D01*
X144220003Y-74263393D02*
X144220003Y-75025297D01*
X144124765Y-75263393D02*
X143124765Y-75263393D01*
X143124765Y-75263393D02*
X143124765Y-75644345D01*
X143124765Y-75644345D02*
X143172384Y-75739583D01*
X143172384Y-75739583D02*
X143220003Y-75787202D01*
X143220003Y-75787202D02*
X143315241Y-75834821D01*
X143315241Y-75834821D02*
X143458098Y-75834821D01*
X143458098Y-75834821D02*
X143553336Y-75787202D01*
X143553336Y-75787202D02*
X143600955Y-75739583D01*
X143600955Y-75739583D02*
X143648574Y-75644345D01*
X143648574Y-75644345D02*
X143648574Y-75263393D01*
X143458098Y-76691964D02*
X144124765Y-76691964D01*
X143458098Y-76263393D02*
X143981907Y-76263393D01*
X143981907Y-76263393D02*
X144077146Y-76311012D01*
X144077146Y-76311012D02*
X144124765Y-76406250D01*
X144124765Y-76406250D02*
X144124765Y-76549107D01*
X144124765Y-76549107D02*
X144077146Y-76644345D01*
X144077146Y-76644345D02*
X144029526Y-76691964D01*
X144077146Y-77120536D02*
X144124765Y-77215774D01*
X144124765Y-77215774D02*
X144124765Y-77406250D01*
X144124765Y-77406250D02*
X144077146Y-77501488D01*
X144077146Y-77501488D02*
X143981907Y-77549107D01*
X143981907Y-77549107D02*
X143934288Y-77549107D01*
X143934288Y-77549107D02*
X143839050Y-77501488D01*
X143839050Y-77501488D02*
X143791431Y-77406250D01*
X143791431Y-77406250D02*
X143791431Y-77263393D01*
X143791431Y-77263393D02*
X143743812Y-77168155D01*
X143743812Y-77168155D02*
X143648574Y-77120536D01*
X143648574Y-77120536D02*
X143600955Y-77120536D01*
X143600955Y-77120536D02*
X143505717Y-77168155D01*
X143505717Y-77168155D02*
X143458098Y-77263393D01*
X143458098Y-77263393D02*
X143458098Y-77406250D01*
X143458098Y-77406250D02*
X143505717Y-77501488D01*
X144124765Y-77977679D02*
X143124765Y-77977679D01*
X144124765Y-78406250D02*
X143600955Y-78406250D01*
X143600955Y-78406250D02*
X143505717Y-78358631D01*
X143505717Y-78358631D02*
X143458098Y-78263393D01*
X143458098Y-78263393D02*
X143458098Y-78120536D01*
X143458098Y-78120536D02*
X143505717Y-78025298D01*
X143505717Y-78025298D02*
X143553336Y-77977679D01*
D10*
%TO.C,D7*%
X94529819Y-112768155D02*
X93529819Y-112768155D01*
X93529819Y-112768155D02*
X93529819Y-113006250D01*
X93529819Y-113006250D02*
X93577438Y-113149107D01*
X93577438Y-113149107D02*
X93672676Y-113244345D01*
X93672676Y-113244345D02*
X93767914Y-113291964D01*
X93767914Y-113291964D02*
X93958390Y-113339583D01*
X93958390Y-113339583D02*
X94101247Y-113339583D01*
X94101247Y-113339583D02*
X94291723Y-113291964D01*
X94291723Y-113291964D02*
X94386961Y-113244345D01*
X94386961Y-113244345D02*
X94482200Y-113149107D01*
X94482200Y-113149107D02*
X94529819Y-113006250D01*
X94529819Y-113006250D02*
X94529819Y-112768155D01*
X93529819Y-113672917D02*
X93529819Y-114339583D01*
X93529819Y-114339583D02*
X94529819Y-113911012D01*
%TO.C,D12*%
X113579819Y-131341964D02*
X112579819Y-131341964D01*
X112579819Y-131341964D02*
X112579819Y-131580059D01*
X112579819Y-131580059D02*
X112627438Y-131722916D01*
X112627438Y-131722916D02*
X112722676Y-131818154D01*
X112722676Y-131818154D02*
X112817914Y-131865773D01*
X112817914Y-131865773D02*
X113008390Y-131913392D01*
X113008390Y-131913392D02*
X113151247Y-131913392D01*
X113151247Y-131913392D02*
X113341723Y-131865773D01*
X113341723Y-131865773D02*
X113436961Y-131818154D01*
X113436961Y-131818154D02*
X113532200Y-131722916D01*
X113532200Y-131722916D02*
X113579819Y-131580059D01*
X113579819Y-131580059D02*
X113579819Y-131341964D01*
X113579819Y-132865773D02*
X113579819Y-132294345D01*
X113579819Y-132580059D02*
X112579819Y-132580059D01*
X112579819Y-132580059D02*
X112722676Y-132484821D01*
X112722676Y-132484821D02*
X112817914Y-132389583D01*
X112817914Y-132389583D02*
X112865533Y-132294345D01*
X112675057Y-133246726D02*
X112627438Y-133294345D01*
X112627438Y-133294345D02*
X112579819Y-133389583D01*
X112579819Y-133389583D02*
X112579819Y-133627678D01*
X112579819Y-133627678D02*
X112627438Y-133722916D01*
X112627438Y-133722916D02*
X112675057Y-133770535D01*
X112675057Y-133770535D02*
X112770295Y-133818154D01*
X112770295Y-133818154D02*
X112865533Y-133818154D01*
X112865533Y-133818154D02*
X113008390Y-133770535D01*
X113008390Y-133770535D02*
X113579819Y-133199107D01*
X113579819Y-133199107D02*
X113579819Y-133818154D01*
%TO.C,D6*%
X132629819Y-93718155D02*
X131629819Y-93718155D01*
X131629819Y-93718155D02*
X131629819Y-93956250D01*
X131629819Y-93956250D02*
X131677438Y-94099107D01*
X131677438Y-94099107D02*
X131772676Y-94194345D01*
X131772676Y-94194345D02*
X131867914Y-94241964D01*
X131867914Y-94241964D02*
X132058390Y-94289583D01*
X132058390Y-94289583D02*
X132201247Y-94289583D01*
X132201247Y-94289583D02*
X132391723Y-94241964D01*
X132391723Y-94241964D02*
X132486961Y-94194345D01*
X132486961Y-94194345D02*
X132582200Y-94099107D01*
X132582200Y-94099107D02*
X132629819Y-93956250D01*
X132629819Y-93956250D02*
X132629819Y-93718155D01*
X131629819Y-95146726D02*
X131629819Y-94956250D01*
X131629819Y-94956250D02*
X131677438Y-94861012D01*
X131677438Y-94861012D02*
X131725057Y-94813393D01*
X131725057Y-94813393D02*
X131867914Y-94718155D01*
X131867914Y-94718155D02*
X132058390Y-94670536D01*
X132058390Y-94670536D02*
X132439342Y-94670536D01*
X132439342Y-94670536D02*
X132534580Y-94718155D01*
X132534580Y-94718155D02*
X132582200Y-94765774D01*
X132582200Y-94765774D02*
X132629819Y-94861012D01*
X132629819Y-94861012D02*
X132629819Y-95051488D01*
X132629819Y-95051488D02*
X132582200Y-95146726D01*
X132582200Y-95146726D02*
X132534580Y-95194345D01*
X132534580Y-95194345D02*
X132439342Y-95241964D01*
X132439342Y-95241964D02*
X132201247Y-95241964D01*
X132201247Y-95241964D02*
X132106009Y-95194345D01*
X132106009Y-95194345D02*
X132058390Y-95146726D01*
X132058390Y-95146726D02*
X132010771Y-95051488D01*
X132010771Y-95051488D02*
X132010771Y-94861012D01*
X132010771Y-94861012D02*
X132058390Y-94765774D01*
X132058390Y-94765774D02*
X132106009Y-94718155D01*
X132106009Y-94718155D02*
X132201247Y-94670536D01*
%TO.C,D1*%
X94529819Y-74668155D02*
X93529819Y-74668155D01*
X93529819Y-74668155D02*
X93529819Y-74906250D01*
X93529819Y-74906250D02*
X93577438Y-75049107D01*
X93577438Y-75049107D02*
X93672676Y-75144345D01*
X93672676Y-75144345D02*
X93767914Y-75191964D01*
X93767914Y-75191964D02*
X93958390Y-75239583D01*
X93958390Y-75239583D02*
X94101247Y-75239583D01*
X94101247Y-75239583D02*
X94291723Y-75191964D01*
X94291723Y-75191964D02*
X94386961Y-75144345D01*
X94386961Y-75144345D02*
X94482200Y-75049107D01*
X94482200Y-75049107D02*
X94529819Y-74906250D01*
X94529819Y-74906250D02*
X94529819Y-74668155D01*
X94529819Y-76191964D02*
X94529819Y-75620536D01*
X94529819Y-75906250D02*
X93529819Y-75906250D01*
X93529819Y-75906250D02*
X93672676Y-75811012D01*
X93672676Y-75811012D02*
X93767914Y-75715774D01*
X93767914Y-75715774D02*
X93815533Y-75620536D01*
%TO.C,D13*%
X132629819Y-131341964D02*
X131629819Y-131341964D01*
X131629819Y-131341964D02*
X131629819Y-131580059D01*
X131629819Y-131580059D02*
X131677438Y-131722916D01*
X131677438Y-131722916D02*
X131772676Y-131818154D01*
X131772676Y-131818154D02*
X131867914Y-131865773D01*
X131867914Y-131865773D02*
X132058390Y-131913392D01*
X132058390Y-131913392D02*
X132201247Y-131913392D01*
X132201247Y-131913392D02*
X132391723Y-131865773D01*
X132391723Y-131865773D02*
X132486961Y-131818154D01*
X132486961Y-131818154D02*
X132582200Y-131722916D01*
X132582200Y-131722916D02*
X132629819Y-131580059D01*
X132629819Y-131580059D02*
X132629819Y-131341964D01*
X132629819Y-132865773D02*
X132629819Y-132294345D01*
X132629819Y-132580059D02*
X131629819Y-132580059D01*
X131629819Y-132580059D02*
X131772676Y-132484821D01*
X131772676Y-132484821D02*
X131867914Y-132389583D01*
X131867914Y-132389583D02*
X131915533Y-132294345D01*
X131629819Y-133199107D02*
X131629819Y-133818154D01*
X131629819Y-133818154D02*
X132010771Y-133484821D01*
X132010771Y-133484821D02*
X132010771Y-133627678D01*
X132010771Y-133627678D02*
X132058390Y-133722916D01*
X132058390Y-133722916D02*
X132106009Y-133770535D01*
X132106009Y-133770535D02*
X132201247Y-133818154D01*
X132201247Y-133818154D02*
X132439342Y-133818154D01*
X132439342Y-133818154D02*
X132534580Y-133770535D01*
X132534580Y-133770535D02*
X132582200Y-133722916D01*
X132582200Y-133722916D02*
X132629819Y-133627678D01*
X132629819Y-133627678D02*
X132629819Y-133341964D01*
X132629819Y-133341964D02*
X132582200Y-133246726D01*
X132582200Y-133246726D02*
X132534580Y-133199107D01*
%TO.C,MX14*%
X152061904Y-125704819D02*
X152061904Y-124704819D01*
X152061904Y-124704819D02*
X151728571Y-125419104D01*
X151728571Y-125419104D02*
X151395238Y-124704819D01*
X151395238Y-124704819D02*
X151395238Y-125704819D01*
X151014285Y-124704819D02*
X150347619Y-125704819D01*
X150347619Y-124704819D02*
X151014285Y-125704819D01*
X149442857Y-125704819D02*
X150014285Y-125704819D01*
X149728571Y-125704819D02*
X149728571Y-124704819D01*
X149728571Y-124704819D02*
X149823809Y-124847676D01*
X149823809Y-124847676D02*
X149919047Y-124942914D01*
X149919047Y-124942914D02*
X150014285Y-124990533D01*
X148585714Y-125038152D02*
X148585714Y-125704819D01*
X148823809Y-124657200D02*
X149061904Y-125371485D01*
X149061904Y-125371485D02*
X148442857Y-125371485D01*
%TO.C,D3*%
X132629819Y-74668155D02*
X131629819Y-74668155D01*
X131629819Y-74668155D02*
X131629819Y-74906250D01*
X131629819Y-74906250D02*
X131677438Y-75049107D01*
X131677438Y-75049107D02*
X131772676Y-75144345D01*
X131772676Y-75144345D02*
X131867914Y-75191964D01*
X131867914Y-75191964D02*
X132058390Y-75239583D01*
X132058390Y-75239583D02*
X132201247Y-75239583D01*
X132201247Y-75239583D02*
X132391723Y-75191964D01*
X132391723Y-75191964D02*
X132486961Y-75144345D01*
X132486961Y-75144345D02*
X132582200Y-75049107D01*
X132582200Y-75049107D02*
X132629819Y-74906250D01*
X132629819Y-74906250D02*
X132629819Y-74668155D01*
X131629819Y-75572917D02*
X131629819Y-76191964D01*
X131629819Y-76191964D02*
X132010771Y-75858631D01*
X132010771Y-75858631D02*
X132010771Y-76001488D01*
X132010771Y-76001488D02*
X132058390Y-76096726D01*
X132058390Y-76096726D02*
X132106009Y-76144345D01*
X132106009Y-76144345D02*
X132201247Y-76191964D01*
X132201247Y-76191964D02*
X132439342Y-76191964D01*
X132439342Y-76191964D02*
X132534580Y-76144345D01*
X132534580Y-76144345D02*
X132582200Y-76096726D01*
X132582200Y-76096726D02*
X132629819Y-76001488D01*
X132629819Y-76001488D02*
X132629819Y-75715774D01*
X132629819Y-75715774D02*
X132582200Y-75620536D01*
X132582200Y-75620536D02*
X132534580Y-75572917D01*
%TO.C,MX13*%
X133011904Y-125704819D02*
X133011904Y-124704819D01*
X133011904Y-124704819D02*
X132678571Y-125419104D01*
X132678571Y-125419104D02*
X132345238Y-124704819D01*
X132345238Y-124704819D02*
X132345238Y-125704819D01*
X131964285Y-124704819D02*
X131297619Y-125704819D01*
X131297619Y-124704819D02*
X131964285Y-125704819D01*
X130392857Y-125704819D02*
X130964285Y-125704819D01*
X130678571Y-125704819D02*
X130678571Y-124704819D01*
X130678571Y-124704819D02*
X130773809Y-124847676D01*
X130773809Y-124847676D02*
X130869047Y-124942914D01*
X130869047Y-124942914D02*
X130964285Y-124990533D01*
X130059523Y-124704819D02*
X129440476Y-124704819D01*
X129440476Y-124704819D02*
X129773809Y-125085771D01*
X129773809Y-125085771D02*
X129630952Y-125085771D01*
X129630952Y-125085771D02*
X129535714Y-125133390D01*
X129535714Y-125133390D02*
X129488095Y-125181009D01*
X129488095Y-125181009D02*
X129440476Y-125276247D01*
X129440476Y-125276247D02*
X129440476Y-125514342D01*
X129440476Y-125514342D02*
X129488095Y-125609580D01*
X129488095Y-125609580D02*
X129535714Y-125657200D01*
X129535714Y-125657200D02*
X129630952Y-125704819D01*
X129630952Y-125704819D02*
X129916666Y-125704819D01*
X129916666Y-125704819D02*
X130011904Y-125657200D01*
X130011904Y-125657200D02*
X130059523Y-125609580D01*
%TO.C,D14*%
X151679819Y-131341964D02*
X150679819Y-131341964D01*
X150679819Y-131341964D02*
X150679819Y-131580059D01*
X150679819Y-131580059D02*
X150727438Y-131722916D01*
X150727438Y-131722916D02*
X150822676Y-131818154D01*
X150822676Y-131818154D02*
X150917914Y-131865773D01*
X150917914Y-131865773D02*
X151108390Y-131913392D01*
X151108390Y-131913392D02*
X151251247Y-131913392D01*
X151251247Y-131913392D02*
X151441723Y-131865773D01*
X151441723Y-131865773D02*
X151536961Y-131818154D01*
X151536961Y-131818154D02*
X151632200Y-131722916D01*
X151632200Y-131722916D02*
X151679819Y-131580059D01*
X151679819Y-131580059D02*
X151679819Y-131341964D01*
X151679819Y-132865773D02*
X151679819Y-132294345D01*
X151679819Y-132580059D02*
X150679819Y-132580059D01*
X150679819Y-132580059D02*
X150822676Y-132484821D01*
X150822676Y-132484821D02*
X150917914Y-132389583D01*
X150917914Y-132389583D02*
X150965533Y-132294345D01*
X151013152Y-133722916D02*
X151679819Y-133722916D01*
X150632200Y-133484821D02*
X151346485Y-133246726D01*
X151346485Y-133246726D02*
X151346485Y-133865773D01*
%TO.C,D10*%
X151679819Y-112291964D02*
X150679819Y-112291964D01*
X150679819Y-112291964D02*
X150679819Y-112530059D01*
X150679819Y-112530059D02*
X150727438Y-112672916D01*
X150727438Y-112672916D02*
X150822676Y-112768154D01*
X150822676Y-112768154D02*
X150917914Y-112815773D01*
X150917914Y-112815773D02*
X151108390Y-112863392D01*
X151108390Y-112863392D02*
X151251247Y-112863392D01*
X151251247Y-112863392D02*
X151441723Y-112815773D01*
X151441723Y-112815773D02*
X151536961Y-112768154D01*
X151536961Y-112768154D02*
X151632200Y-112672916D01*
X151632200Y-112672916D02*
X151679819Y-112530059D01*
X151679819Y-112530059D02*
X151679819Y-112291964D01*
X151679819Y-113815773D02*
X151679819Y-113244345D01*
X151679819Y-113530059D02*
X150679819Y-113530059D01*
X150679819Y-113530059D02*
X150822676Y-113434821D01*
X150822676Y-113434821D02*
X150917914Y-113339583D01*
X150917914Y-113339583D02*
X150965533Y-113244345D01*
X150679819Y-114434821D02*
X150679819Y-114530059D01*
X150679819Y-114530059D02*
X150727438Y-114625297D01*
X150727438Y-114625297D02*
X150775057Y-114672916D01*
X150775057Y-114672916D02*
X150870295Y-114720535D01*
X150870295Y-114720535D02*
X151060771Y-114768154D01*
X151060771Y-114768154D02*
X151298866Y-114768154D01*
X151298866Y-114768154D02*
X151489342Y-114720535D01*
X151489342Y-114720535D02*
X151584580Y-114672916D01*
X151584580Y-114672916D02*
X151632200Y-114625297D01*
X151632200Y-114625297D02*
X151679819Y-114530059D01*
X151679819Y-114530059D02*
X151679819Y-114434821D01*
X151679819Y-114434821D02*
X151632200Y-114339583D01*
X151632200Y-114339583D02*
X151584580Y-114291964D01*
X151584580Y-114291964D02*
X151489342Y-114244345D01*
X151489342Y-114244345D02*
X151298866Y-114196726D01*
X151298866Y-114196726D02*
X151060771Y-114196726D01*
X151060771Y-114196726D02*
X150870295Y-114244345D01*
X150870295Y-114244345D02*
X150775057Y-114291964D01*
X150775057Y-114291964D02*
X150727438Y-114339583D01*
X150727438Y-114339583D02*
X150679819Y-114434821D01*
%TO.C,D5*%
X113579819Y-93718155D02*
X112579819Y-93718155D01*
X112579819Y-93718155D02*
X112579819Y-93956250D01*
X112579819Y-93956250D02*
X112627438Y-94099107D01*
X112627438Y-94099107D02*
X112722676Y-94194345D01*
X112722676Y-94194345D02*
X112817914Y-94241964D01*
X112817914Y-94241964D02*
X113008390Y-94289583D01*
X113008390Y-94289583D02*
X113151247Y-94289583D01*
X113151247Y-94289583D02*
X113341723Y-94241964D01*
X113341723Y-94241964D02*
X113436961Y-94194345D01*
X113436961Y-94194345D02*
X113532200Y-94099107D01*
X113532200Y-94099107D02*
X113579819Y-93956250D01*
X113579819Y-93956250D02*
X113579819Y-93718155D01*
X112579819Y-95194345D02*
X112579819Y-94718155D01*
X112579819Y-94718155D02*
X113056009Y-94670536D01*
X113056009Y-94670536D02*
X113008390Y-94718155D01*
X113008390Y-94718155D02*
X112960771Y-94813393D01*
X112960771Y-94813393D02*
X112960771Y-95051488D01*
X112960771Y-95051488D02*
X113008390Y-95146726D01*
X113008390Y-95146726D02*
X113056009Y-95194345D01*
X113056009Y-95194345D02*
X113151247Y-95241964D01*
X113151247Y-95241964D02*
X113389342Y-95241964D01*
X113389342Y-95241964D02*
X113484580Y-95194345D01*
X113484580Y-95194345D02*
X113532200Y-95146726D01*
X113532200Y-95146726D02*
X113579819Y-95051488D01*
X113579819Y-95051488D02*
X113579819Y-94813393D01*
X113579819Y-94813393D02*
X113532200Y-94718155D01*
X113532200Y-94718155D02*
X113484580Y-94670536D01*
%TO.C,MX5*%
X113485713Y-87604819D02*
X113485713Y-86604819D01*
X113485713Y-86604819D02*
X113152380Y-87319104D01*
X113152380Y-87319104D02*
X112819047Y-86604819D01*
X112819047Y-86604819D02*
X112819047Y-87604819D01*
X112438094Y-86604819D02*
X111771428Y-87604819D01*
X111771428Y-86604819D02*
X112438094Y-87604819D01*
X110914285Y-86604819D02*
X111390475Y-86604819D01*
X111390475Y-86604819D02*
X111438094Y-87081009D01*
X111438094Y-87081009D02*
X111390475Y-87033390D01*
X111390475Y-87033390D02*
X111295237Y-86985771D01*
X111295237Y-86985771D02*
X111057142Y-86985771D01*
X111057142Y-86985771D02*
X110961904Y-87033390D01*
X110961904Y-87033390D02*
X110914285Y-87081009D01*
X110914285Y-87081009D02*
X110866666Y-87176247D01*
X110866666Y-87176247D02*
X110866666Y-87414342D01*
X110866666Y-87414342D02*
X110914285Y-87509580D01*
X110914285Y-87509580D02*
X110961904Y-87557200D01*
X110961904Y-87557200D02*
X111057142Y-87604819D01*
X111057142Y-87604819D02*
X111295237Y-87604819D01*
X111295237Y-87604819D02*
X111390475Y-87557200D01*
X111390475Y-87557200D02*
X111438094Y-87509580D01*
%TO.C,D9*%
X132629819Y-112768155D02*
X131629819Y-112768155D01*
X131629819Y-112768155D02*
X131629819Y-113006250D01*
X131629819Y-113006250D02*
X131677438Y-113149107D01*
X131677438Y-113149107D02*
X131772676Y-113244345D01*
X131772676Y-113244345D02*
X131867914Y-113291964D01*
X131867914Y-113291964D02*
X132058390Y-113339583D01*
X132058390Y-113339583D02*
X132201247Y-113339583D01*
X132201247Y-113339583D02*
X132391723Y-113291964D01*
X132391723Y-113291964D02*
X132486961Y-113244345D01*
X132486961Y-113244345D02*
X132582200Y-113149107D01*
X132582200Y-113149107D02*
X132629819Y-113006250D01*
X132629819Y-113006250D02*
X132629819Y-112768155D01*
X132629819Y-113815774D02*
X132629819Y-114006250D01*
X132629819Y-114006250D02*
X132582200Y-114101488D01*
X132582200Y-114101488D02*
X132534580Y-114149107D01*
X132534580Y-114149107D02*
X132391723Y-114244345D01*
X132391723Y-114244345D02*
X132201247Y-114291964D01*
X132201247Y-114291964D02*
X131820295Y-114291964D01*
X131820295Y-114291964D02*
X131725057Y-114244345D01*
X131725057Y-114244345D02*
X131677438Y-114196726D01*
X131677438Y-114196726D02*
X131629819Y-114101488D01*
X131629819Y-114101488D02*
X131629819Y-113911012D01*
X131629819Y-113911012D02*
X131677438Y-113815774D01*
X131677438Y-113815774D02*
X131725057Y-113768155D01*
X131725057Y-113768155D02*
X131820295Y-113720536D01*
X131820295Y-113720536D02*
X132058390Y-113720536D01*
X132058390Y-113720536D02*
X132153628Y-113768155D01*
X132153628Y-113768155D02*
X132201247Y-113815774D01*
X132201247Y-113815774D02*
X132248866Y-113911012D01*
X132248866Y-113911012D02*
X132248866Y-114101488D01*
X132248866Y-114101488D02*
X132201247Y-114196726D01*
X132201247Y-114196726D02*
X132153628Y-114244345D01*
X132153628Y-114244345D02*
X132058390Y-114291964D01*
%TO.C,MX10*%
X152061904Y-106654819D02*
X152061904Y-105654819D01*
X152061904Y-105654819D02*
X151728571Y-106369104D01*
X151728571Y-106369104D02*
X151395238Y-105654819D01*
X151395238Y-105654819D02*
X151395238Y-106654819D01*
X151014285Y-105654819D02*
X150347619Y-106654819D01*
X150347619Y-105654819D02*
X151014285Y-106654819D01*
X149442857Y-106654819D02*
X150014285Y-106654819D01*
X149728571Y-106654819D02*
X149728571Y-105654819D01*
X149728571Y-105654819D02*
X149823809Y-105797676D01*
X149823809Y-105797676D02*
X149919047Y-105892914D01*
X149919047Y-105892914D02*
X150014285Y-105940533D01*
X148823809Y-105654819D02*
X148728571Y-105654819D01*
X148728571Y-105654819D02*
X148633333Y-105702438D01*
X148633333Y-105702438D02*
X148585714Y-105750057D01*
X148585714Y-105750057D02*
X148538095Y-105845295D01*
X148538095Y-105845295D02*
X148490476Y-106035771D01*
X148490476Y-106035771D02*
X148490476Y-106273866D01*
X148490476Y-106273866D02*
X148538095Y-106464342D01*
X148538095Y-106464342D02*
X148585714Y-106559580D01*
X148585714Y-106559580D02*
X148633333Y-106607200D01*
X148633333Y-106607200D02*
X148728571Y-106654819D01*
X148728571Y-106654819D02*
X148823809Y-106654819D01*
X148823809Y-106654819D02*
X148919047Y-106607200D01*
X148919047Y-106607200D02*
X148966666Y-106559580D01*
X148966666Y-106559580D02*
X149014285Y-106464342D01*
X149014285Y-106464342D02*
X149061904Y-106273866D01*
X149061904Y-106273866D02*
X149061904Y-106035771D01*
X149061904Y-106035771D02*
X149014285Y-105845295D01*
X149014285Y-105845295D02*
X148966666Y-105750057D01*
X148966666Y-105750057D02*
X148919047Y-105702438D01*
X148919047Y-105702438D02*
X148823809Y-105654819D01*
%TO.C,MX3*%
X132535713Y-68554819D02*
X132535713Y-67554819D01*
X132535713Y-67554819D02*
X132202380Y-68269104D01*
X132202380Y-68269104D02*
X131869047Y-67554819D01*
X131869047Y-67554819D02*
X131869047Y-68554819D01*
X131488094Y-67554819D02*
X130821428Y-68554819D01*
X130821428Y-67554819D02*
X131488094Y-68554819D01*
X130535713Y-67554819D02*
X129916666Y-67554819D01*
X129916666Y-67554819D02*
X130249999Y-67935771D01*
X130249999Y-67935771D02*
X130107142Y-67935771D01*
X130107142Y-67935771D02*
X130011904Y-67983390D01*
X130011904Y-67983390D02*
X129964285Y-68031009D01*
X129964285Y-68031009D02*
X129916666Y-68126247D01*
X129916666Y-68126247D02*
X129916666Y-68364342D01*
X129916666Y-68364342D02*
X129964285Y-68459580D01*
X129964285Y-68459580D02*
X130011904Y-68507200D01*
X130011904Y-68507200D02*
X130107142Y-68554819D01*
X130107142Y-68554819D02*
X130392856Y-68554819D01*
X130392856Y-68554819D02*
X130488094Y-68507200D01*
X130488094Y-68507200D02*
X130535713Y-68459580D01*
%TO.C,D4*%
X94529819Y-93718155D02*
X93529819Y-93718155D01*
X93529819Y-93718155D02*
X93529819Y-93956250D01*
X93529819Y-93956250D02*
X93577438Y-94099107D01*
X93577438Y-94099107D02*
X93672676Y-94194345D01*
X93672676Y-94194345D02*
X93767914Y-94241964D01*
X93767914Y-94241964D02*
X93958390Y-94289583D01*
X93958390Y-94289583D02*
X94101247Y-94289583D01*
X94101247Y-94289583D02*
X94291723Y-94241964D01*
X94291723Y-94241964D02*
X94386961Y-94194345D01*
X94386961Y-94194345D02*
X94482200Y-94099107D01*
X94482200Y-94099107D02*
X94529819Y-93956250D01*
X94529819Y-93956250D02*
X94529819Y-93718155D01*
X93863152Y-95146726D02*
X94529819Y-95146726D01*
X93482200Y-94908631D02*
X94196485Y-94670536D01*
X94196485Y-94670536D02*
X94196485Y-95289583D01*
%TO.C,MX6*%
X132535713Y-87604819D02*
X132535713Y-86604819D01*
X132535713Y-86604819D02*
X132202380Y-87319104D01*
X132202380Y-87319104D02*
X131869047Y-86604819D01*
X131869047Y-86604819D02*
X131869047Y-87604819D01*
X131488094Y-86604819D02*
X130821428Y-87604819D01*
X130821428Y-86604819D02*
X131488094Y-87604819D01*
X130011904Y-86604819D02*
X130202380Y-86604819D01*
X130202380Y-86604819D02*
X130297618Y-86652438D01*
X130297618Y-86652438D02*
X130345237Y-86700057D01*
X130345237Y-86700057D02*
X130440475Y-86842914D01*
X130440475Y-86842914D02*
X130488094Y-87033390D01*
X130488094Y-87033390D02*
X130488094Y-87414342D01*
X130488094Y-87414342D02*
X130440475Y-87509580D01*
X130440475Y-87509580D02*
X130392856Y-87557200D01*
X130392856Y-87557200D02*
X130297618Y-87604819D01*
X130297618Y-87604819D02*
X130107142Y-87604819D01*
X130107142Y-87604819D02*
X130011904Y-87557200D01*
X130011904Y-87557200D02*
X129964285Y-87509580D01*
X129964285Y-87509580D02*
X129916666Y-87414342D01*
X129916666Y-87414342D02*
X129916666Y-87176247D01*
X129916666Y-87176247D02*
X129964285Y-87081009D01*
X129964285Y-87081009D02*
X130011904Y-87033390D01*
X130011904Y-87033390D02*
X130107142Y-86985771D01*
X130107142Y-86985771D02*
X130297618Y-86985771D01*
X130297618Y-86985771D02*
X130392856Y-87033390D01*
X130392856Y-87033390D02*
X130440475Y-87081009D01*
X130440475Y-87081009D02*
X130488094Y-87176247D01*
%TO.C,MX12*%
X113961904Y-125704819D02*
X113961904Y-124704819D01*
X113961904Y-124704819D02*
X113628571Y-125419104D01*
X113628571Y-125419104D02*
X113295238Y-124704819D01*
X113295238Y-124704819D02*
X113295238Y-125704819D01*
X112914285Y-124704819D02*
X112247619Y-125704819D01*
X112247619Y-124704819D02*
X112914285Y-125704819D01*
X111342857Y-125704819D02*
X111914285Y-125704819D01*
X111628571Y-125704819D02*
X111628571Y-124704819D01*
X111628571Y-124704819D02*
X111723809Y-124847676D01*
X111723809Y-124847676D02*
X111819047Y-124942914D01*
X111819047Y-124942914D02*
X111914285Y-124990533D01*
X110961904Y-124800057D02*
X110914285Y-124752438D01*
X110914285Y-124752438D02*
X110819047Y-124704819D01*
X110819047Y-124704819D02*
X110580952Y-124704819D01*
X110580952Y-124704819D02*
X110485714Y-124752438D01*
X110485714Y-124752438D02*
X110438095Y-124800057D01*
X110438095Y-124800057D02*
X110390476Y-124895295D01*
X110390476Y-124895295D02*
X110390476Y-124990533D01*
X110390476Y-124990533D02*
X110438095Y-125133390D01*
X110438095Y-125133390D02*
X111009523Y-125704819D01*
X111009523Y-125704819D02*
X110390476Y-125704819D01*
%TO.C,MX8*%
X113485713Y-106654819D02*
X113485713Y-105654819D01*
X113485713Y-105654819D02*
X113152380Y-106369104D01*
X113152380Y-106369104D02*
X112819047Y-105654819D01*
X112819047Y-105654819D02*
X112819047Y-106654819D01*
X112438094Y-105654819D02*
X111771428Y-106654819D01*
X111771428Y-105654819D02*
X112438094Y-106654819D01*
X111247618Y-106083390D02*
X111342856Y-106035771D01*
X111342856Y-106035771D02*
X111390475Y-105988152D01*
X111390475Y-105988152D02*
X111438094Y-105892914D01*
X111438094Y-105892914D02*
X111438094Y-105845295D01*
X111438094Y-105845295D02*
X111390475Y-105750057D01*
X111390475Y-105750057D02*
X111342856Y-105702438D01*
X111342856Y-105702438D02*
X111247618Y-105654819D01*
X111247618Y-105654819D02*
X111057142Y-105654819D01*
X111057142Y-105654819D02*
X110961904Y-105702438D01*
X110961904Y-105702438D02*
X110914285Y-105750057D01*
X110914285Y-105750057D02*
X110866666Y-105845295D01*
X110866666Y-105845295D02*
X110866666Y-105892914D01*
X110866666Y-105892914D02*
X110914285Y-105988152D01*
X110914285Y-105988152D02*
X110961904Y-106035771D01*
X110961904Y-106035771D02*
X111057142Y-106083390D01*
X111057142Y-106083390D02*
X111247618Y-106083390D01*
X111247618Y-106083390D02*
X111342856Y-106131009D01*
X111342856Y-106131009D02*
X111390475Y-106178628D01*
X111390475Y-106178628D02*
X111438094Y-106273866D01*
X111438094Y-106273866D02*
X111438094Y-106464342D01*
X111438094Y-106464342D02*
X111390475Y-106559580D01*
X111390475Y-106559580D02*
X111342856Y-106607200D01*
X111342856Y-106607200D02*
X111247618Y-106654819D01*
X111247618Y-106654819D02*
X111057142Y-106654819D01*
X111057142Y-106654819D02*
X110961904Y-106607200D01*
X110961904Y-106607200D02*
X110914285Y-106559580D01*
X110914285Y-106559580D02*
X110866666Y-106464342D01*
X110866666Y-106464342D02*
X110866666Y-106273866D01*
X110866666Y-106273866D02*
X110914285Y-106178628D01*
X110914285Y-106178628D02*
X110961904Y-106131009D01*
X110961904Y-106131009D02*
X111057142Y-106083390D01*
%TO.C,MX1*%
X94435713Y-68554819D02*
X94435713Y-67554819D01*
X94435713Y-67554819D02*
X94102380Y-68269104D01*
X94102380Y-68269104D02*
X93769047Y-67554819D01*
X93769047Y-67554819D02*
X93769047Y-68554819D01*
X93388094Y-67554819D02*
X92721428Y-68554819D01*
X92721428Y-67554819D02*
X93388094Y-68554819D01*
X91816666Y-68554819D02*
X92388094Y-68554819D01*
X92102380Y-68554819D02*
X92102380Y-67554819D01*
X92102380Y-67554819D02*
X92197618Y-67697676D01*
X92197618Y-67697676D02*
X92292856Y-67792914D01*
X92292856Y-67792914D02*
X92388094Y-67840533D01*
%TO.C,MX11*%
X94911904Y-125704819D02*
X94911904Y-124704819D01*
X94911904Y-124704819D02*
X94578571Y-125419104D01*
X94578571Y-125419104D02*
X94245238Y-124704819D01*
X94245238Y-124704819D02*
X94245238Y-125704819D01*
X93864285Y-124704819D02*
X93197619Y-125704819D01*
X93197619Y-124704819D02*
X93864285Y-125704819D01*
X92292857Y-125704819D02*
X92864285Y-125704819D01*
X92578571Y-125704819D02*
X92578571Y-124704819D01*
X92578571Y-124704819D02*
X92673809Y-124847676D01*
X92673809Y-124847676D02*
X92769047Y-124942914D01*
X92769047Y-124942914D02*
X92864285Y-124990533D01*
X91340476Y-125704819D02*
X91911904Y-125704819D01*
X91626190Y-125704819D02*
X91626190Y-124704819D01*
X91626190Y-124704819D02*
X91721428Y-124847676D01*
X91721428Y-124847676D02*
X91816666Y-124942914D01*
X91816666Y-124942914D02*
X91911904Y-124990533D01*
%TO.C,MX9*%
X132535713Y-106654819D02*
X132535713Y-105654819D01*
X132535713Y-105654819D02*
X132202380Y-106369104D01*
X132202380Y-106369104D02*
X131869047Y-105654819D01*
X131869047Y-105654819D02*
X131869047Y-106654819D01*
X131488094Y-105654819D02*
X130821428Y-106654819D01*
X130821428Y-105654819D02*
X131488094Y-106654819D01*
X130392856Y-106654819D02*
X130202380Y-106654819D01*
X130202380Y-106654819D02*
X130107142Y-106607200D01*
X130107142Y-106607200D02*
X130059523Y-106559580D01*
X130059523Y-106559580D02*
X129964285Y-106416723D01*
X129964285Y-106416723D02*
X129916666Y-106226247D01*
X129916666Y-106226247D02*
X129916666Y-105845295D01*
X129916666Y-105845295D02*
X129964285Y-105750057D01*
X129964285Y-105750057D02*
X130011904Y-105702438D01*
X130011904Y-105702438D02*
X130107142Y-105654819D01*
X130107142Y-105654819D02*
X130297618Y-105654819D01*
X130297618Y-105654819D02*
X130392856Y-105702438D01*
X130392856Y-105702438D02*
X130440475Y-105750057D01*
X130440475Y-105750057D02*
X130488094Y-105845295D01*
X130488094Y-105845295D02*
X130488094Y-106083390D01*
X130488094Y-106083390D02*
X130440475Y-106178628D01*
X130440475Y-106178628D02*
X130392856Y-106226247D01*
X130392856Y-106226247D02*
X130297618Y-106273866D01*
X130297618Y-106273866D02*
X130107142Y-106273866D01*
X130107142Y-106273866D02*
X130011904Y-106226247D01*
X130011904Y-106226247D02*
X129964285Y-106178628D01*
X129964285Y-106178628D02*
X129916666Y-106083390D01*
D12*
%TO.C,D8*%
X110125000Y-115803750D02*
X110125000Y-111793750D01*
X112125000Y-115803750D02*
X110125000Y-115803750D01*
X112125000Y-115803750D02*
X112125000Y-111793750D01*
D10*
%TO.C,MX4*%
X93764824Y-85229780D02*
X93764824Y-85699780D01*
X93764824Y-82149780D02*
X93764824Y-82379780D01*
X93264824Y-86199780D02*
X88700000Y-86199780D01*
X92214824Y-82149780D02*
X93764824Y-82149780D01*
X84814824Y-82149780D02*
X90714824Y-82149780D01*
X82814824Y-87799780D02*
X82814824Y-88039780D01*
X82814824Y-84949780D02*
X82814824Y-84149780D01*
X93264824Y-86199780D02*
G75*
G03*
X93764824Y-85699780I-1J500001D01*
G01*
X88700000Y-86199781D02*
G75*
G03*
X86405679Y-88039780I-866J-2349331D01*
G01*
X84814824Y-82149780D02*
G75*
G03*
X82814824Y-84149780I5J-2000005D01*
G01*
%TO.C,MX2*%
X112814824Y-66179780D02*
X112814824Y-66649780D01*
X112814824Y-63099780D02*
X112814824Y-63329780D01*
X112314824Y-67149780D02*
X107750000Y-67149780D01*
X111264824Y-63099780D02*
X112814824Y-63099780D01*
X103864824Y-63099780D02*
X109764824Y-63099780D01*
X101864824Y-68749780D02*
X101864824Y-68989780D01*
X101864824Y-65899780D02*
X101864824Y-65099780D01*
X112314824Y-67149780D02*
G75*
G03*
X112814824Y-66649780I-1J500001D01*
G01*
X107750000Y-67149781D02*
G75*
G03*
X105455679Y-68989780I-866J-2349331D01*
G01*
X103864824Y-63099780D02*
G75*
G03*
X101864824Y-65099780I5J-2000005D01*
G01*
D12*
%TO.C,D2*%
X110125000Y-77766250D02*
X110125000Y-73756250D01*
X112125000Y-77766250D02*
X110125000Y-77766250D01*
X112125000Y-77766250D02*
X112125000Y-73756250D01*
%TO.C,D11*%
X91075000Y-134916250D02*
X91075000Y-130906250D01*
X93075000Y-134916250D02*
X91075000Y-134916250D01*
X93075000Y-134916250D02*
X93075000Y-130906250D01*
D10*
%TO.C,MX7*%
X93764824Y-104279780D02*
X93764824Y-104749780D01*
X93764824Y-101199780D02*
X93764824Y-101429780D01*
X93264824Y-105249780D02*
X88700000Y-105249780D01*
X92214824Y-101199780D02*
X93764824Y-101199780D01*
X84814824Y-101199780D02*
X90714824Y-101199780D01*
X82814824Y-106849780D02*
X82814824Y-107089780D01*
X82814824Y-103999780D02*
X82814824Y-103199780D01*
X93264824Y-105249780D02*
G75*
G03*
X93764824Y-104749780I-1J500001D01*
G01*
X88700000Y-105249781D02*
G75*
G03*
X86405679Y-107089780I-866J-2349331D01*
G01*
X84814824Y-101199780D02*
G75*
G03*
X82814824Y-103199780I5J-2000005D01*
G01*
D13*
%TO.C,SW1*%
X145345150Y-78405990D02*
X145743930Y-78405990D01*
X147943570Y-78405990D02*
X148342350Y-78405990D01*
X148591270Y-78154530D02*
X148591270Y-72657970D01*
X146094450Y-76904850D02*
X147593050Y-76904850D01*
X147593050Y-76904850D02*
X147593050Y-73907650D01*
X146094450Y-73907650D02*
X146094450Y-76904850D01*
X146094450Y-73907650D02*
X147593050Y-73907650D01*
X145096230Y-72657970D02*
X145096230Y-78154530D01*
X145345150Y-72406510D02*
X145743930Y-72406510D01*
X147943570Y-72406510D02*
X148342350Y-72406510D01*
X145096230Y-78154530D02*
G75*
G03*
X145345150Y-78403450I248920J0D01*
G01*
X148342350Y-78405990D02*
G75*
G03*
X148593810Y-78154530I0J251460D01*
G01*
X145345150Y-72406490D02*
G75*
G03*
X145093690Y-72657970I0J-251460D01*
G01*
X148591250Y-72657970D02*
G75*
G03*
X148342350Y-72409050I-248900J20D01*
G01*
D12*
%TO.C,D7*%
X91075000Y-115866250D02*
X91075000Y-111856250D01*
X93075000Y-115866250D02*
X91075000Y-115866250D01*
X93075000Y-115866250D02*
X93075000Y-111856250D01*
%TO.C,D12*%
X110125000Y-134916250D02*
X110125000Y-130906250D01*
X112125000Y-134916250D02*
X110125000Y-134916250D01*
X112125000Y-134916250D02*
X112125000Y-130906250D01*
%TO.C,D6*%
X129175000Y-96816250D02*
X129175000Y-92806250D01*
X131175000Y-96816250D02*
X129175000Y-96816250D01*
X131175000Y-96816250D02*
X131175000Y-92806250D01*
%TO.C,D1*%
X91075000Y-77766250D02*
X91075000Y-73756250D01*
X93075000Y-77766250D02*
X91075000Y-77766250D01*
X93075000Y-77766250D02*
X93075000Y-73756250D01*
%TO.C,D13*%
X129175000Y-134916250D02*
X129175000Y-130906250D01*
X131175000Y-134916250D02*
X129175000Y-134916250D01*
X131175000Y-134916250D02*
X131175000Y-130906250D01*
D10*
%TO.C,MX14*%
X150914824Y-123329780D02*
X150914824Y-123799780D01*
X150914824Y-120249780D02*
X150914824Y-120479780D01*
X150414824Y-124299780D02*
X145850000Y-124299780D01*
X149364824Y-120249780D02*
X150914824Y-120249780D01*
X141964824Y-120249780D02*
X147864824Y-120249780D01*
X139964824Y-125899780D02*
X139964824Y-126139780D01*
X139964824Y-123049780D02*
X139964824Y-122249780D01*
X150414824Y-124299780D02*
G75*
G03*
X150914824Y-123799780I-1J500001D01*
G01*
X145850000Y-124299781D02*
G75*
G03*
X143555679Y-126139780I-866J-2349331D01*
G01*
X141964824Y-120249780D02*
G75*
G03*
X139964824Y-122249780I5J-2000005D01*
G01*
D12*
%TO.C,D3*%
X129175000Y-77766250D02*
X129175000Y-73756250D01*
X131175000Y-77766250D02*
X129175000Y-77766250D01*
X131175000Y-77766250D02*
X131175000Y-73756250D01*
D10*
%TO.C,MX13*%
X131864824Y-123329780D02*
X131864824Y-123799780D01*
X131864824Y-120249780D02*
X131864824Y-120479780D01*
X131364824Y-124299780D02*
X126800000Y-124299780D01*
X130314824Y-120249780D02*
X131864824Y-120249780D01*
X122914824Y-120249780D02*
X128814824Y-120249780D01*
X120914824Y-125899780D02*
X120914824Y-126139780D01*
X120914824Y-123049780D02*
X120914824Y-122249780D01*
X131364824Y-124299780D02*
G75*
G03*
X131864824Y-123799780I-1J500001D01*
G01*
X126800000Y-124299781D02*
G75*
G03*
X124505679Y-126139780I-866J-2349331D01*
G01*
X122914824Y-120249780D02*
G75*
G03*
X120914824Y-122249780I5J-2000005D01*
G01*
D12*
%TO.C,D14*%
X148225000Y-134916250D02*
X148225000Y-130906250D01*
X150225000Y-134916250D02*
X148225000Y-134916250D01*
X150225000Y-134916250D02*
X150225000Y-130906250D01*
%TO.C,D10*%
X148225000Y-115866250D02*
X148225000Y-111856250D01*
X150225000Y-115866250D02*
X148225000Y-115866250D01*
X150225000Y-115866250D02*
X150225000Y-111856250D01*
%TO.C,D5*%
X110125000Y-96816250D02*
X110125000Y-92806250D01*
X112125000Y-96816250D02*
X110125000Y-96816250D01*
X112125000Y-96816250D02*
X112125000Y-92806250D01*
D10*
%TO.C,MX5*%
X112814824Y-85229780D02*
X112814824Y-85699780D01*
X112814824Y-82149780D02*
X112814824Y-82379780D01*
X112314824Y-86199780D02*
X107750000Y-86199780D01*
X111264824Y-82149780D02*
X112814824Y-82149780D01*
X103864824Y-82149780D02*
X109764824Y-82149780D01*
X101864824Y-87799780D02*
X101864824Y-88039780D01*
X101864824Y-84949780D02*
X101864824Y-84149780D01*
X112314824Y-86199780D02*
G75*
G03*
X112814824Y-85699780I-1J500001D01*
G01*
X107750000Y-86199781D02*
G75*
G03*
X105455679Y-88039780I-866J-2349331D01*
G01*
X103864824Y-82149780D02*
G75*
G03*
X101864824Y-84149780I5J-2000005D01*
G01*
D12*
%TO.C,D9*%
X129175000Y-115866250D02*
X129175000Y-111856250D01*
X131175000Y-115866250D02*
X129175000Y-115866250D01*
X131175000Y-115866250D02*
X131175000Y-111856250D01*
D10*
%TO.C,MX10*%
X150914824Y-104279780D02*
X150914824Y-104749780D01*
X150914824Y-101199780D02*
X150914824Y-101429780D01*
X150414824Y-105249780D02*
X145850000Y-105249780D01*
X149364824Y-101199780D02*
X150914824Y-101199780D01*
X141964824Y-101199780D02*
X147864824Y-101199780D01*
X139964824Y-106849780D02*
X139964824Y-107089780D01*
X139964824Y-103999780D02*
X139964824Y-103199780D01*
X150414824Y-105249780D02*
G75*
G03*
X150914824Y-104749780I-1J500001D01*
G01*
X145850000Y-105249781D02*
G75*
G03*
X143555679Y-107089780I-866J-2349331D01*
G01*
X141964824Y-101199780D02*
G75*
G03*
X139964824Y-103199780I5J-2000005D01*
G01*
%TO.C,MX3*%
X131864824Y-66179780D02*
X131864824Y-66649780D01*
X131864824Y-63099780D02*
X131864824Y-63329780D01*
X131364824Y-67149780D02*
X126800000Y-67149780D01*
X130314824Y-63099780D02*
X131864824Y-63099780D01*
X122914824Y-63099780D02*
X128814824Y-63099780D01*
X120914824Y-68749780D02*
X120914824Y-68989780D01*
X120914824Y-65899780D02*
X120914824Y-65099780D01*
X131364824Y-67149780D02*
G75*
G03*
X131864824Y-66649780I-1J500001D01*
G01*
X126800000Y-67149781D02*
G75*
G03*
X124505679Y-68989780I-866J-2349331D01*
G01*
X122914824Y-63099780D02*
G75*
G03*
X120914824Y-65099780I5J-2000005D01*
G01*
D12*
%TO.C,D4*%
X91075000Y-96816250D02*
X91075000Y-92806250D01*
X93075000Y-96816250D02*
X91075000Y-96816250D01*
X93075000Y-96816250D02*
X93075000Y-92806250D01*
D10*
%TO.C,MX6*%
X131864824Y-85229780D02*
X131864824Y-85699780D01*
X131864824Y-82149780D02*
X131864824Y-82379780D01*
X131364824Y-86199780D02*
X126800000Y-86199780D01*
X130314824Y-82149780D02*
X131864824Y-82149780D01*
X122914824Y-82149780D02*
X128814824Y-82149780D01*
X120914824Y-87799780D02*
X120914824Y-88039780D01*
X120914824Y-84949780D02*
X120914824Y-84149780D01*
X131364824Y-86199780D02*
G75*
G03*
X131864824Y-85699780I-1J500001D01*
G01*
X126800000Y-86199781D02*
G75*
G03*
X124505679Y-88039780I-866J-2349331D01*
G01*
X122914824Y-82149780D02*
G75*
G03*
X120914824Y-84149780I5J-2000005D01*
G01*
%TO.C,MX12*%
X112814824Y-123329780D02*
X112814824Y-123799780D01*
X112814824Y-120249780D02*
X112814824Y-120479780D01*
X112314824Y-124299780D02*
X107750000Y-124299780D01*
X111264824Y-120249780D02*
X112814824Y-120249780D01*
X103864824Y-120249780D02*
X109764824Y-120249780D01*
X101864824Y-125899780D02*
X101864824Y-126139780D01*
X101864824Y-123049780D02*
X101864824Y-122249780D01*
X112314824Y-124299780D02*
G75*
G03*
X112814824Y-123799780I-1J500001D01*
G01*
X107750000Y-124299781D02*
G75*
G03*
X105455679Y-126139780I-866J-2349331D01*
G01*
X103864824Y-120249780D02*
G75*
G03*
X101864824Y-122249780I5J-2000005D01*
G01*
%TO.C,MX8*%
X112814824Y-104279780D02*
X112814824Y-104749780D01*
X112814824Y-101199780D02*
X112814824Y-101429780D01*
X112314824Y-105249780D02*
X107750000Y-105249780D01*
X111264824Y-101199780D02*
X112814824Y-101199780D01*
X103864824Y-101199780D02*
X109764824Y-101199780D01*
X101864824Y-106849780D02*
X101864824Y-107089780D01*
X101864824Y-103999780D02*
X101864824Y-103199780D01*
X112314824Y-105249780D02*
G75*
G03*
X112814824Y-104749780I-1J500001D01*
G01*
X107750000Y-105249781D02*
G75*
G03*
X105455679Y-107089780I-866J-2349331D01*
G01*
X103864824Y-101199780D02*
G75*
G03*
X101864824Y-103199780I5J-2000005D01*
G01*
%TO.C,MX1*%
X93764824Y-66179780D02*
X93764824Y-66649780D01*
X93764824Y-63099780D02*
X93764824Y-63329780D01*
X93264824Y-67149780D02*
X88700000Y-67149780D01*
X92214824Y-63099780D02*
X93764824Y-63099780D01*
X84814824Y-63099780D02*
X90714824Y-63099780D01*
X82814824Y-68749780D02*
X82814824Y-68989780D01*
X82814824Y-65899780D02*
X82814824Y-65099780D01*
X93264824Y-67149780D02*
G75*
G03*
X93764824Y-66649780I-1J500001D01*
G01*
X88700000Y-67149781D02*
G75*
G03*
X86405679Y-68989780I-866J-2349331D01*
G01*
X84814824Y-63099780D02*
G75*
G03*
X82814824Y-65099780I5J-2000005D01*
G01*
%TO.C,MX11*%
X93764824Y-123329780D02*
X93764824Y-123799780D01*
X93764824Y-120249780D02*
X93764824Y-120479780D01*
X93264824Y-124299780D02*
X88700000Y-124299780D01*
X92214824Y-120249780D02*
X93764824Y-120249780D01*
X84814824Y-120249780D02*
X90714824Y-120249780D01*
X82814824Y-125899780D02*
X82814824Y-126139780D01*
X82814824Y-123049780D02*
X82814824Y-122249780D01*
X93264824Y-124299780D02*
G75*
G03*
X93764824Y-123799780I-1J500001D01*
G01*
X88700000Y-124299781D02*
G75*
G03*
X86405679Y-126139780I-866J-2349331D01*
G01*
X84814824Y-120249780D02*
G75*
G03*
X82814824Y-122249780I5J-2000005D01*
G01*
%TO.C,MX9*%
X131864824Y-104279780D02*
X131864824Y-104749780D01*
X131864824Y-101199780D02*
X131864824Y-101429780D01*
X131364824Y-105249780D02*
X126800000Y-105249780D01*
X130314824Y-101199780D02*
X131864824Y-101199780D01*
X122914824Y-101199780D02*
X128814824Y-101199780D01*
X120914824Y-106849780D02*
X120914824Y-107089780D01*
X120914824Y-103999780D02*
X120914824Y-103199780D01*
X131364824Y-105249780D02*
G75*
G03*
X131864824Y-104749780I-1J500001D01*
G01*
X126800000Y-105249781D02*
G75*
G03*
X124505679Y-107089780I-866J-2349331D01*
G01*
X122914824Y-101199780D02*
G75*
G03*
X120914824Y-103199780I5J-2000005D01*
G01*
%TD*%
%LPC*%
D14*
%TO.C,U1*%
X139223750Y-62230000D03*
X139223750Y-64770000D03*
D15*
X139223750Y-67310000D03*
X139223750Y-69850000D03*
D14*
X139223750Y-72390000D03*
X139223750Y-74930000D03*
X139223750Y-77470000D03*
X139223750Y-80010000D03*
X139223750Y-82550000D03*
X139223750Y-85090000D03*
X139223750Y-87630000D03*
X139223750Y-90170000D03*
X154463750Y-62230000D03*
D15*
X154463750Y-64770000D03*
D14*
X154463750Y-67310000D03*
X154463750Y-69850000D03*
X154463750Y-72390000D03*
X154463750Y-74930000D03*
X154463750Y-77470000D03*
X154463750Y-80010000D03*
X154463750Y-82550000D03*
X154463750Y-85090000D03*
X154463750Y-87630000D03*
X154463750Y-90170000D03*
%TD*%
D16*
%TO.C,D8*%
X111125000Y-115093750D03*
X111125000Y-111793750D03*
%TD*%
D17*
%TO.C,MX4*%
X93980000Y-88900000D03*
D18*
X88900000Y-88900000D03*
D17*
X83820000Y-88900000D03*
D19*
X85090000Y-86360000D03*
D20*
X81540000Y-86360000D03*
X94990000Y-83820000D03*
D19*
X91440000Y-83820000D03*
%TD*%
D17*
%TO.C,MX2*%
X113030000Y-69850000D03*
D18*
X107950000Y-69850000D03*
D17*
X102870000Y-69850000D03*
D19*
X104140000Y-67310000D03*
D20*
X100590000Y-67310000D03*
X114040000Y-64770000D03*
D19*
X110490000Y-64770000D03*
%TD*%
D16*
%TO.C,D2*%
X111125000Y-77056250D03*
X111125000Y-73756250D03*
%TD*%
%TO.C,D11*%
X92075000Y-134206250D03*
X92075000Y-130906250D03*
%TD*%
D17*
%TO.C,MX7*%
X93980000Y-107950000D03*
D18*
X88900000Y-107950000D03*
D17*
X83820000Y-107950000D03*
D19*
X85090000Y-105410000D03*
D20*
X81540000Y-105410000D03*
X94990000Y-102870000D03*
D19*
X91440000Y-102870000D03*
%TD*%
D21*
%TO.C,SW1*%
X146843750Y-78555850D03*
X146843750Y-72256650D03*
%TD*%
D16*
%TO.C,D7*%
X92075000Y-115156250D03*
X92075000Y-111856250D03*
%TD*%
%TO.C,D12*%
X111125000Y-134206250D03*
X111125000Y-130906250D03*
%TD*%
%TO.C,D6*%
X130175000Y-96106250D03*
X130175000Y-92806250D03*
%TD*%
%TO.C,D1*%
X92075000Y-77056250D03*
X92075000Y-73756250D03*
%TD*%
%TO.C,D13*%
X130175000Y-134206250D03*
X130175000Y-130906250D03*
%TD*%
D17*
%TO.C,MX14*%
X151130000Y-127000000D03*
D18*
X146050000Y-127000000D03*
D17*
X140970000Y-127000000D03*
D19*
X142240000Y-124460000D03*
D20*
X138690000Y-124460000D03*
X152140000Y-121920000D03*
D19*
X148590000Y-121920000D03*
%TD*%
D16*
%TO.C,D3*%
X130175000Y-77056250D03*
X130175000Y-73756250D03*
%TD*%
D17*
%TO.C,MX13*%
X132080000Y-127000000D03*
D18*
X127000000Y-127000000D03*
D17*
X121920000Y-127000000D03*
D19*
X123190000Y-124460000D03*
D20*
X119640000Y-124460000D03*
X133090000Y-121920000D03*
D19*
X129540000Y-121920000D03*
%TD*%
D16*
%TO.C,D14*%
X149225000Y-134206250D03*
X149225000Y-130906250D03*
%TD*%
%TO.C,D10*%
X149225000Y-115156250D03*
X149225000Y-111856250D03*
%TD*%
%TO.C,D5*%
X111125000Y-96106250D03*
X111125000Y-92806250D03*
%TD*%
D17*
%TO.C,MX5*%
X113030000Y-88900000D03*
D18*
X107950000Y-88900000D03*
D17*
X102870000Y-88900000D03*
D19*
X104140000Y-86360000D03*
D20*
X100590000Y-86360000D03*
X114040000Y-83820000D03*
D19*
X110490000Y-83820000D03*
%TD*%
D16*
%TO.C,D9*%
X130175000Y-115156250D03*
X130175000Y-111856250D03*
%TD*%
D17*
%TO.C,MX10*%
X151130000Y-107950000D03*
D18*
X146050000Y-107950000D03*
D17*
X140970000Y-107950000D03*
D19*
X142240000Y-105410000D03*
D20*
X138690000Y-105410000D03*
X152140000Y-102870000D03*
D19*
X148590000Y-102870000D03*
%TD*%
D17*
%TO.C,MX3*%
X132080000Y-69850000D03*
D18*
X127000000Y-69850000D03*
D17*
X121920000Y-69850000D03*
D19*
X123190000Y-67310000D03*
D20*
X119640000Y-67310000D03*
X133090000Y-64770000D03*
D19*
X129540000Y-64770000D03*
%TD*%
D16*
%TO.C,D4*%
X92075000Y-96106250D03*
X92075000Y-92806250D03*
%TD*%
D17*
%TO.C,MX6*%
X132080000Y-88900000D03*
D18*
X127000000Y-88900000D03*
D17*
X121920000Y-88900000D03*
D19*
X123190000Y-86360000D03*
D20*
X119640000Y-86360000D03*
X133090000Y-83820000D03*
D19*
X129540000Y-83820000D03*
%TD*%
D17*
%TO.C,MX12*%
X113030000Y-127000000D03*
D18*
X107950000Y-127000000D03*
D17*
X102870000Y-127000000D03*
D19*
X104140000Y-124460000D03*
D20*
X100590000Y-124460000D03*
X114040000Y-121920000D03*
D19*
X110490000Y-121920000D03*
%TD*%
D17*
%TO.C,MX8*%
X113030000Y-107950000D03*
D18*
X107950000Y-107950000D03*
D17*
X102870000Y-107950000D03*
D19*
X104140000Y-105410000D03*
D20*
X100590000Y-105410000D03*
X114040000Y-102870000D03*
D19*
X110490000Y-102870000D03*
%TD*%
D17*
%TO.C,MX1*%
X93980000Y-69850000D03*
D18*
X88900000Y-69850000D03*
D17*
X83820000Y-69850000D03*
D19*
X85090000Y-67310000D03*
D20*
X81540000Y-67310000D03*
X94990000Y-64770000D03*
D19*
X91440000Y-64770000D03*
%TD*%
D17*
%TO.C,MX11*%
X93980000Y-127000000D03*
D18*
X88900000Y-127000000D03*
D17*
X83820000Y-127000000D03*
D19*
X85090000Y-124460000D03*
D20*
X81540000Y-124460000D03*
X94990000Y-121920000D03*
D19*
X91440000Y-121920000D03*
%TD*%
D17*
%TO.C,MX9*%
X132080000Y-107950000D03*
D18*
X127000000Y-107950000D03*
D17*
X121920000Y-107950000D03*
D19*
X123190000Y-105410000D03*
D20*
X119640000Y-105410000D03*
X133090000Y-102870000D03*
D19*
X129540000Y-102870000D03*
%TD*%
%LPD*%
M02*
