M48
; DRILL file {KiCad 7.0.5} date Sun Aug 25 19:53:18 2024
; FORMAT={-:-/ absolute / inch / decimal}
; #@! TF.CreationDate,2024-08-25T19:53:18+07:00
; #@! TF.GenerationSoftware,Kicad,Pcbnew,7.0.5
; #@! TF.FileFunction,NonPlated,1,2,NPTH
FMAT,2
INCH
; #@! TA.AperFunction,NonPlated,NPTH,ComponentDrill
T1C0.0689
; #@! TA.AperFunction,NonPlated,NPTH,ComponentDrill
T2C0.1570
%
G90
G05
T1
X3.3Y-2.75
X3.3Y-3.5
X3.3Y-4.25
X3.3Y-5.0
X3.7Y-2.75
X3.7Y-3.5
X3.7Y-4.25
X3.7Y-5.0
X4.05Y-2.75
X4.05Y-3.5
X4.05Y-4.25
X4.05Y-5.0
X4.45Y-2.75
X4.45Y-3.5
X4.45Y-4.25
X4.45Y-5.0
X4.8Y-2.75
X4.8Y-3.5
X4.8Y-4.25
X4.8Y-5.0
X5.2Y-2.75
X5.2Y-3.5
X5.2Y-4.25
X5.2Y-5.0
X5.55Y-4.25
X5.55Y-5.0
X5.95Y-4.25
X5.95Y-5.0
T2
X3.5Y-2.75
X3.5Y-3.5
X3.5Y-4.25
X3.5Y-5.0
X4.25Y-2.75
X4.25Y-3.5
X4.25Y-4.25
X4.25Y-5.0
X5.0Y-2.75
X5.0Y-3.5
X5.0Y-4.25
X5.0Y-5.0
X5.75Y-4.25
X5.75Y-5.0
T0
M30
