%TF.GenerationSoftware,KiCad,Pcbnew,7.0.5*%
%TF.CreationDate,2024-08-25T19:53:10+07:00*%
%TF.ProjectId,13A-Pro,3133412d-5072-46f2-9e6b-696361645f70,rev?*%
%TF.SameCoordinates,Original*%
%TF.FileFunction,Soldermask,Bot*%
%TF.FilePolarity,Negative*%
%FSLAX46Y46*%
G04 Gerber Fmt 4.6, Leading zero omitted, Abs format (unit mm)*
G04 Created by KiCad (PCBNEW 7.0.5) date 2024-08-25 19:53:10*
%MOMM*%
%LPD*%
G01*
G04 APERTURE LIST*
G04 Aperture macros list*
%AMRoundRect*
0 Rectangle with rounded corners*
0 $1 Rounding radius*
0 $2 $3 $4 $5 $6 $7 $8 $9 X,Y pos of 4 corners*
0 Add a 4 corners polygon primitive as box body*
4,1,4,$2,$3,$4,$5,$6,$7,$8,$9,$2,$3,0*
0 Add four circle primitives for the rounded corners*
1,1,$1+$1,$2,$3*
1,1,$1+$1,$4,$5*
1,1,$1+$1,$6,$7*
1,1,$1+$1,$8,$9*
0 Add four rect primitives between the rounded corners*
20,1,$1+$1,$2,$3,$4,$5,0*
20,1,$1+$1,$4,$5,$6,$7,0*
20,1,$1+$1,$6,$7,$8,$9,0*
20,1,$1+$1,$8,$9,$2,$3,0*%
G04 Aperture macros list end*
%ADD10C,1.800000*%
%ADD11RoundRect,0.450000X-0.450000X-0.450000X0.450000X-0.450000X0.450000X0.450000X-0.450000X0.450000X0*%
%ADD12RoundRect,0.225000X0.375000X-0.225000X0.375000X0.225000X-0.375000X0.225000X-0.375000X-0.225000X0*%
%ADD13C,1.750000*%
%ADD14C,3.987800*%
%ADD15C,3.300000*%
%ADD16RoundRect,0.250000X1.025000X1.000000X-1.025000X1.000000X-1.025000X-1.000000X1.025000X-1.000000X0*%
%ADD17RoundRect,0.101600X-0.798830X1.149350X-0.798830X-1.149350X0.798830X-1.149350X0.798830X1.149350X0*%
G04 APERTURE END LIST*
D10*
%TO.C,U1*%
X139223750Y-62230000D03*
X139223750Y-64770000D03*
D11*
X139223750Y-67310000D03*
X139223750Y-69850000D03*
D10*
X139223750Y-72390000D03*
X139223750Y-74930000D03*
X139223750Y-77470000D03*
X139223750Y-80010000D03*
X139223750Y-82550000D03*
X139223750Y-85090000D03*
X139223750Y-87630000D03*
X139223750Y-90170000D03*
X154463750Y-62230000D03*
D11*
X154463750Y-64770000D03*
D10*
X154463750Y-67310000D03*
X154463750Y-69850000D03*
X154463750Y-72390000D03*
X154463750Y-74930000D03*
X154463750Y-77470000D03*
X154463750Y-80010000D03*
X154463750Y-82550000D03*
X154463750Y-85090000D03*
X154463750Y-87630000D03*
X154463750Y-90170000D03*
%TD*%
D12*
%TO.C,D8*%
X111125000Y-115093750D03*
X111125000Y-111793750D03*
%TD*%
D13*
%TO.C,MX4*%
X93980000Y-88900000D03*
D14*
X88900000Y-88900000D03*
D13*
X83820000Y-88900000D03*
D15*
X85090000Y-86360000D03*
D16*
X81540000Y-86360000D03*
X94990000Y-83820000D03*
D15*
X91440000Y-83820000D03*
%TD*%
D13*
%TO.C,MX2*%
X113030000Y-69850000D03*
D14*
X107950000Y-69850000D03*
D13*
X102870000Y-69850000D03*
D15*
X104140000Y-67310000D03*
D16*
X100590000Y-67310000D03*
X114040000Y-64770000D03*
D15*
X110490000Y-64770000D03*
%TD*%
D12*
%TO.C,D2*%
X111125000Y-77056250D03*
X111125000Y-73756250D03*
%TD*%
%TO.C,D11*%
X92075000Y-134206250D03*
X92075000Y-130906250D03*
%TD*%
D13*
%TO.C,MX7*%
X93980000Y-107950000D03*
D14*
X88900000Y-107950000D03*
D13*
X83820000Y-107950000D03*
D15*
X85090000Y-105410000D03*
D16*
X81540000Y-105410000D03*
X94990000Y-102870000D03*
D15*
X91440000Y-102870000D03*
%TD*%
D17*
%TO.C,SW1*%
X146843750Y-78555850D03*
X146843750Y-72256650D03*
%TD*%
D12*
%TO.C,D7*%
X92075000Y-115156250D03*
X92075000Y-111856250D03*
%TD*%
%TO.C,D12*%
X111125000Y-134206250D03*
X111125000Y-130906250D03*
%TD*%
%TO.C,D6*%
X130175000Y-96106250D03*
X130175000Y-92806250D03*
%TD*%
%TO.C,D1*%
X92075000Y-77056250D03*
X92075000Y-73756250D03*
%TD*%
%TO.C,D13*%
X130175000Y-134206250D03*
X130175000Y-130906250D03*
%TD*%
D13*
%TO.C,MX14*%
X151130000Y-127000000D03*
D14*
X146050000Y-127000000D03*
D13*
X140970000Y-127000000D03*
D15*
X142240000Y-124460000D03*
D16*
X138690000Y-124460000D03*
X152140000Y-121920000D03*
D15*
X148590000Y-121920000D03*
%TD*%
D12*
%TO.C,D3*%
X130175000Y-77056250D03*
X130175000Y-73756250D03*
%TD*%
D13*
%TO.C,MX13*%
X132080000Y-127000000D03*
D14*
X127000000Y-127000000D03*
D13*
X121920000Y-127000000D03*
D15*
X123190000Y-124460000D03*
D16*
X119640000Y-124460000D03*
X133090000Y-121920000D03*
D15*
X129540000Y-121920000D03*
%TD*%
D12*
%TO.C,D14*%
X149225000Y-134206250D03*
X149225000Y-130906250D03*
%TD*%
%TO.C,D10*%
X149225000Y-115156250D03*
X149225000Y-111856250D03*
%TD*%
%TO.C,D5*%
X111125000Y-96106250D03*
X111125000Y-92806250D03*
%TD*%
D13*
%TO.C,MX5*%
X113030000Y-88900000D03*
D14*
X107950000Y-88900000D03*
D13*
X102870000Y-88900000D03*
D15*
X104140000Y-86360000D03*
D16*
X100590000Y-86360000D03*
X114040000Y-83820000D03*
D15*
X110490000Y-83820000D03*
%TD*%
D12*
%TO.C,D9*%
X130175000Y-115156250D03*
X130175000Y-111856250D03*
%TD*%
D13*
%TO.C,MX10*%
X151130000Y-107950000D03*
D14*
X146050000Y-107950000D03*
D13*
X140970000Y-107950000D03*
D15*
X142240000Y-105410000D03*
D16*
X138690000Y-105410000D03*
X152140000Y-102870000D03*
D15*
X148590000Y-102870000D03*
%TD*%
D13*
%TO.C,MX3*%
X132080000Y-69850000D03*
D14*
X127000000Y-69850000D03*
D13*
X121920000Y-69850000D03*
D15*
X123190000Y-67310000D03*
D16*
X119640000Y-67310000D03*
X133090000Y-64770000D03*
D15*
X129540000Y-64770000D03*
%TD*%
D12*
%TO.C,D4*%
X92075000Y-96106250D03*
X92075000Y-92806250D03*
%TD*%
D13*
%TO.C,MX6*%
X132080000Y-88900000D03*
D14*
X127000000Y-88900000D03*
D13*
X121920000Y-88900000D03*
D15*
X123190000Y-86360000D03*
D16*
X119640000Y-86360000D03*
X133090000Y-83820000D03*
D15*
X129540000Y-83820000D03*
%TD*%
D13*
%TO.C,MX12*%
X113030000Y-127000000D03*
D14*
X107950000Y-127000000D03*
D13*
X102870000Y-127000000D03*
D15*
X104140000Y-124460000D03*
D16*
X100590000Y-124460000D03*
X114040000Y-121920000D03*
D15*
X110490000Y-121920000D03*
%TD*%
D13*
%TO.C,MX8*%
X113030000Y-107950000D03*
D14*
X107950000Y-107950000D03*
D13*
X102870000Y-107950000D03*
D15*
X104140000Y-105410000D03*
D16*
X100590000Y-105410000D03*
X114040000Y-102870000D03*
D15*
X110490000Y-102870000D03*
%TD*%
D13*
%TO.C,MX1*%
X93980000Y-69850000D03*
D14*
X88900000Y-69850000D03*
D13*
X83820000Y-69850000D03*
D15*
X85090000Y-67310000D03*
D16*
X81540000Y-67310000D03*
X94990000Y-64770000D03*
D15*
X91440000Y-64770000D03*
%TD*%
D13*
%TO.C,MX11*%
X93980000Y-127000000D03*
D14*
X88900000Y-127000000D03*
D13*
X83820000Y-127000000D03*
D15*
X85090000Y-124460000D03*
D16*
X81540000Y-124460000D03*
X94990000Y-121920000D03*
D15*
X91440000Y-121920000D03*
%TD*%
D13*
%TO.C,MX9*%
X132080000Y-107950000D03*
D14*
X127000000Y-107950000D03*
D13*
X121920000Y-107950000D03*
D15*
X123190000Y-105410000D03*
D16*
X119640000Y-105410000D03*
X133090000Y-102870000D03*
D15*
X129540000Y-102870000D03*
%TD*%
M02*
